/* XPM */
static char *dde4730ab342466cfa437b84a6ce37ceSD6fj9PQ7LdTRtf7[] = {
/* columns rows colors chars-per-pixel */
"80 80 199 2 ",
"   c #332F1F",
".  c #38301E",
"X  c #322F23",
"o  c #3B3625",
"O  c #3D3926",
"+  c #3A362A",
"@  c #3E3B2A",
"#  c #433B26",
"$  c #433D2B",
"%  c #46412D",
"&  c #4B442D",
"*  c #50472F",
"=  c #454332",
"-  c #4A4533",
";  c #4D4935",
":  c #4A4739",
">  c #4E4B3B",
",  c #544A32",
"<  c #524C35",
"1  c #534D3B",
"2  c #5B5235",
"3  c #55523C",
"4  c #585438",
"5  c #5A543D",
"6  c #796D34",
"7  c #534F41",
"8  c #555342",
"9  c #5B5542",
"0  c #575942",
"q  c #5D5A44",
"w  c #5B5548",
"e  c #5D5B4A",
"r  c #625C45",
"t  c #635D4A",
"y  c #695F49",
"u  c #645F50",
"i  c #5F614D",
"p  c #656146",
"a  c #696346",
"s  c #65624C",
"d  c #6A644C",
"f  c #6C6A4E",
"g  c #716843",
"h  c #71664D",
"j  c #726B4E",
"k  c #7A724A",
"l  c #656151",
"z  c #6A6552",
"x  c #6D6B53",
"c  c #696658",
"v  c #6D6A59",
"b  c #726D53",
"n  c #786F53",
"m  c #726D5A",
"M  c #6E7055",
"N  c #747255",
"B  c #797455",
"V  c #7C7956",
"C  c #75735A",
"Z  c #7A755B",
"A  c #77785C",
"S  c #7D7A5C",
"D  c #746F60",
"F  c #767561",
"G  c #7A7662",
"H  c #767961",
"J  c #7D7B62",
"K  c #7F7C6A",
"L  c #81742C",
"P  c #847633",
"I  c #827947",
"U  c #817B54",
"Y  c #82765B",
"T  c #827D5D",
"R  c #827D62",
"E  c #887F65",
"W  c #847F6A",
"Q  c #7F8065",
"!  c #9D8C3D",
"~  c #A5933C",
"^  c #B39D37",
"/  c #B9A336",
"(  c #D49A34",
")  c #C4AD36",
"_  c #C4AE3B",
"`  c #DBA533",
"'  c #DEAA33",
"]  c #CFB83D",
"[  c #D0B632",
"{  c #D2BA3D",
"}  c #E0AD33",
"|  c #E4B332",
" . c #E8B632",
".. c #E7B932",
"X. c #EDBD31",
"o. c #DDC235",
"O. c #DDC33D",
"+. c #EDC231",
"@. c #E9C939",
"#. c #EBCE3A",
"$. c #F0C632",
"%. c #F3CC30",
"&. c #F0C63F",
"*. c #F4CF39",
"=. c #EED13A",
"-. c #F5D336",
";. c #F6D738",
":. c #8C8348",
">. c #998B42",
",. c #948B4E",
"<. c #9D9246",
"1. c #85815E",
"2. c #89825E",
"3. c #948B51",
"4. c #958B5B",
"5. c #989158",
"6. c #9A925B",
"7. c #A29547",
"8. c #A69955",
"9. c #AA9D5B",
"0. c #B8A546",
"q. c #B3A349",
"w. c #BBA94C",
"e. c #B5A756",
"r. c #BCAA53",
"t. c #BFB15D",
"y. c #848264",
"u. c #8A8464",
"i. c #8E8966",
"p. c #868369",
"a. c #8A856A",
"s. c #8D8A6C",
"d. c #928B65",
"f. c #958B6D",
"g. c #928D6D",
"h. c #9A9363",
"j. c #95906E",
"k. c #9A936D",
"l. c #9F996C",
"z. c #868372",
"x. c #8A8670",
"c. c #8D8B71",
"v. c #928D72",
"b. c #918E7A",
"n. c #959274",
"m. c #9A9474",
"M. c #9D9976",
"N. c #969379",
"B. c #999679",
"V. c #9A957A",
"C. c #9D997B",
"Z. c #9E9A7D",
"A. c #A69C67",
"S. c #A29A75",
"D. c #A59977",
"F. c #A29C7D",
"G. c #AAA16C",
"H. c #B2A763",
"J. c #BDAE6C",
"K. c #A5A07F",
"L. c #C0AC47",
"P. c #CBB547",
"I. c #CFBA4C",
"U. c #D5BE43",
"Y. c #D8BF44",
"T. c #D4BE4B",
"R. c #C9B653",
"E. c #CDB757",
"W. c #CEBC5C",
"Q. c #C5B766",
"!. c #CBBA63",
"~. c #DAC243",
"^. c #D7C24E",
"/. c #DCC549",
"(. c #D3C15B",
"). c #E1C742",
"_. c #E6CC45",
"`. c #EACF40",
"'. c #F1C943",
"]. c #EED349",
"[. c #F5D446",
"{. c #F7DA44",
"}. c #F4D44B",
"|. c #F4D94C",
" X c #F6D753",
".X c #F6D855",
"XX c #F7DB5D",
"oX c #D4C368",
"OX c #9E9981",
"+X c #A39D82",
"@X c #A79F89",
"#X c #A6A183",
"$X c #AAA484",
"%X c #AEA984",
"&X c #AAA48A",
"*X c #AEA88A",
"=X c #B3AA88",
"-X c #B3AB8B",
";X c #B6B190",
/* pixels */
"1 r 4 d b r d Y Y f n h Z , a b q a j d h r Y n h j 2 r y.T a.a.J v.v.q J E m b 9 T S f T W w Z R C S Z R # z E a.Z R R 5 C S G u.R d y d b C S a.g.p.d J T Y N ",
"o i.S i.v.G E m.m.i.C.n.+X$ v.g.s.M.$XF.F.v +Xp.Z.n.z z #XK.V.C.W b.C.l n.c.H m z g.M.F s.p.t S y.x y.G m.o H +Xn.m.m.b.z n.c.m.n.a.x Z.s.n.Q Z.n.c.c.F c.Z.Z.#X",
"* s u.R u.C R v.C.g.R n.W 1 j.Z.M.Z.Z.v.i.c =X=X+X&XZ u OXZ.n.c.p.n.m.l n.Q Q K 0 v.m.u.m.p.e R H C u.R p.$ z C.$X$XN.c.c V.Z.V.z.J l s.OXQ Q V.V.c.H c s.a.b.@X",
"o S y.f.p.m n u.f.m.S T i.1 v.p.M.m.V.n.V.m x.;X+XF.d c *XV.n.v.C.V.b.y n.G Z.p.0 j.Q y.v.x.1 R g.R f m.V.# H p.p.#Xx.p.m N.J n.c.y.w x z.v.s.s.c.R e 7 n.V.n.C.",
"% u.C j.i.A d s d ; z q m < s.x.x.m.m.*Xm.v Z.C.*XF.b Z *XW n.a.+XZ.g.8 i.p.Q n.0 a.p.M y.c.> S v.R y.V a.4 9 d e q e e 8 m.p.v.Q p.x e Q A c 8 3 l J W x V.N.N.",
"& u.u.V j.l u.R R z s.j.a.- i.F.v.s.v.M.#Xm F.n.+Xp.z m G G z C x x m ; M.x A n.= T y.S v N % y.u.Z S u.J % S C.n.q n.s.c.C v.l s.j.H s C M x K s Q G z.= Z.N.b.",
"& S 1.u.T z v.y.s.w f.g.F.+ y d 9 3 5 r a 5 x C b 9 < v.;Xg.x.F.v.F.Z.l a.J n.c.1 s E A R n.: u.S i.S f.p.; G n.V.e C c.V.C Z.G a.Q v a.c.C J Q R v.n.V.8 Q #XN.",
"@ y.u.i.y.d s.y.a.e J u.b.$ C v.p.s.b F.F.+XC.m.@XOX7 y.v.p.+Xv.y.n.Z.7 3.H.t.q.7.w.E.J.A.A.w b N Z f.y.R X C n.+Xe J J a.C n.n.M.C s Q V.a.p.m F.#Xv.s.> J Z.n.",
"$ 3 3 r 5 3 t s z 1 S m.V.$ Q g.S.f.w C.V.F.C.F.F.+XC p.n.f.m.G.Q.^.].;.;.;.;.;.;.;.;.;.;.;.;.U.0.8.f S y.% M j.#X> c.x S F v.c.n.v.z G y.f.J q f x 4 - - 5 w f ",
"< S V R S x u.a.n.w R v.b.& p.s.F.F.w s.j.#X%XK.v.p.f p.6.(.|.;.;.;.;.;.;.;.;.;.;.;.;.;.;.;.;.;.;.;.;.~.<.5 M c.+Xt x x s.F Z.u.V.V c s H C.J s s.J y.v C A M.E ",
"- T V V N B S R R t v.S V.@ V.n.m.m.c p.a.n.C.K.a.V.>.~.;.;.;.;.;.;.;.;.;.;.;.;.;.;.;.;.;.;.;.;.;.;.;.;.;.@.R.4.W 3 g.C C z R a.M.s.w 3 a.u.p.i i.N s.g.f.Z S p.",
"% N N T s.S i.j.E - a.R n.& g.V.g.m.l s.c.s.n.J J.#.;.;.;.;.;.;.;.;.;.;.;.;.;.;.;.;.;.;.;.;.;.;.;.;.;.;.;.;.;.;.I.N g.p.0 C 3 x m z < q Q g.x S J m s.c.f.J G p.",
"1 V b u.u.d j.n.R ; N u.R $ u.s.m.y.3 u.n.p.A./.;.;.;.;.;.;.;.;.;.;.;.;.-.-.-.-.-.-.*.-.-.-.;.;.;.;.;.;.;.;.;.;.;.;.!.S 8 s e 0 f r t 1 p x 3 f q p x C z B B E ",
"= 5 1 3 1 1 1 & 9 1 1 r d $ q d r s 8 9 3 ! ;.;.;.;.;.;.;.;.;.;.-.-.%.%.%.%.%.%.%.%.%.%.%.%.%.%.-.;.;.;.;.;.;.;.;.;.;.[ p p q d j h 2 9 r y N C s 5 1 f z j n t ",
"% C p C N 2.g.w i.Z u.Z +X1 u.S u.M.u.M.U.;.;.;.;.;.;.;.;.-.-.%.%.%.%.%.%.%.%.%.%.%.%.%.%.%.%.%.%.%.%.-.;.;.;.;.;.;.;.;.#.e.M y.T A d e S i d p.S e N s.f.s.f.N.",
"* 1.j B R i.g.t f.S b M.C.0 y.n.i.S 6.].;.;.;.;.;.;.;.;.%.%.%.%.%.%.%.%.-.-.[.}.;.[.[.;.*.%.%.%.%.%.%.%.%.-.;.;.;.;.;.;.;.;.E.y.C u.m f A C S g.y.s S a.T u.f.v.",
"% V N 2.d.C y.t u.V S T v.- S A M.4.-.;.;.;.;.;.;.;.%.%.%.%.%.%.-..X.XXXXXXXXXXXXXXXXXXXXXXX.X}.-.%.%.%.%.%.%.*.-.;.;.;.;.;.;.P.s.B m t S R 1.f.u.> S S m.R T p.",
"o y.N C V V M.w C T v.T a.1 f t 5.=.;.;.;.;.;.;.%.%.%.%.%.%.}.XXXXXXXXXXXXXXXXXXXXXXXXXXXXXXXXXXXX.X}.%.%.%.%.$.X.-.;.;.;.;.;.;.T.f.z 5 C N N T n.> S V d.g.T R ",
"& p f f u.d.i.q s r y x h - Y 6.#.;.;.;.;.;.;.%.%.%.%.%.}.XXXXXXXXXXXXXXXXXX|.|.|.[.[.[.[..X[..XXXXXXX.X[.%.%.%.$.X.*.;.;.;.;.;.;.T.x r T z y.f.T 7 T C B d.E R ",
"& T 2.1.T u.2.c g.T f.k.C.= V }.;.;.;.;.;.;.%.%.%.%.;.XXXXXXXXXXXXXX.X[.-.%.%.%.%.%.%.%.%.%.%.%.-.}.XXXXXXXX;.%.%.X. .$.;.;.;.;.;.;.>.9 i.x 1.i.g.w S N b S.D.N.",
"& j 2.Z Y T T y N V C i.n.; ).;.;.;.;.;.;.%.%.%.%.}.XXXXXXXXXXXX[.*.%.%.%.%.%.%.%.%.%.%.%.%.%.%.%.%.%.*.}.XXXX}.%.$.X.X.%.;.;.;.;.;.;.:.T N T 1.p.1 s V u.d.u.s.",
"$ f 2.y.V T u.l V B y.x +X~ ;.;.;.;.;.;.%.%.%.%.XXXXXXXXXXXX[.%.%.%.%.%.%.%.%.%.%.%.%.%.%.%.%.%.%.%.%.%.%.*. XXX.X+.X.X.X.$.;.;.;.;.;.-.U V d y.R 9 C V N T E A ",
"+ N 4.4.i.B T t T 1.Y C A.;.;.;.;.;.;.%.%.%.%..XXXXXXXXX X%.%.%.%.%.%.| ` ` ` | %.+.` ` ' ' %.%.%.%.%.%.%.%.%.*.XX.X'.X.X.X.%.;.;.;.;.;.] f 2.T m = N Y V 1.1.J ",
"& B N B f u.b v Y N d.u.O.;.;.;.;.;.-.%.%.%..XXXXXXXXX[.%.%.%.%.%.%.%.| ( ( ( ` %.+.( ( ( ( %.%.%.%.%.%.%.%.%.%.%.}.XXX.X.X...*.;.;.;.;.;.9.B i.C r Z u.t u.u.m ",
"o 2.b B b j T f.d E d.r.;.;.;.;.;.-.%.%.%..XXXXXXXXX*.%.%.%.%.%.%.%.%.| ( ( ( ` %.+.( ( ( ( %.%.%.%.%.%.%.%.%.%.%.%.[..XX.X.X.X.;.;.;.;.;.#.Y j 8 V E V B u.n W ",
"1 N u.j d.i.T S.< b s.}.;.;.;.;.;.%.%.%.}.XXXXXXXX*.%.%.%.%.%.%.%.%.%.| ( ( ( ` %.+.( ( ( ( %.%.%.%.%.%.%.%.%.%.%.%.%.'.}. .X.X.+.;.;.;.;.;.>.V - f T 2.R B Y Z ",
"O & * & & & & 2 $ o L ;.;.;.;.;.%.%.%.*.XXXXXXXX-.%.%.+.| | | | | | | ' ( ( ( ` | } ( ( ( ( +.%.%.%.%.%.%.%.%.%.%.%.%.X.'.'.X.X.X.*.;.;.;.;.o.4 o - 1 * * & & , ",
"r f.T R a.p.J s.u.v @.;.;.;.;.-.%.%.%..XXXXXXX*.%.%.%.| ( ( ( ( ( ( ( ( ( ( ( ( ( ( ( ( ( ( ( ( } X.%.%.%.%.%.%.%.%.%.$.X.'.X.X.X.+.;.;.;.;.;.9.a.T p.t n Y R V.",
"8 m.y.s.m.F.C c.y.A.;.;.;.;.;.%.%.%.}.XXXXXX[.%.%.%.%.| ( ( ( ( ( ( ( ( ( ( ( ( ( ( ( ( ( ( ( ( ( ( } %.%.%.%.%.%.%.%.$.X.X.X.X.X.X.*.;.;.;.;.Y.R J v.8 u.D.+X+X",
"9 s.a.m.#Xg.y.p.s.P.;.;.;.;.-.%.%.%.XXXXXX.X%.%.%.%.%.| ( ( ( ( ( ( ( ( ( ( ( ( ( ( ( ( ( ( ( ( ( ( ( } %.%.%.%.%.%.%.$.X.X.X.X.X.X.X.;.;.;.;.;.h.g.R < s.S.v.c.",
"; J y.n.y.F.s.N n #.;.;.;.;.-.%.%.[.XXXXXX-.%.%.%.%.%...` ' ( ( ( ( ( ( ( ( ( ( ( ( ( ( ( ( ( ( ( ( ( (  .%.%.%.%.%.%.%.X.X.X.X.X.X.X.-.;.;.;.;.7.T V.1 a.m.H v.",
"0 J n.n.S s.j.s :.;.;.;.;.;.%.%.%.XXXXXX}.%.%.%.%.%.%.%.%.%...( ( ( ( ( ( ` +.X.X.+.X.| ` ( ( ( ( ( ( ( ` %.%.%.%.%.%.%.X.X.X.X.X.X.X.%.;.;.;.;.U.s N - Z u.E V.",
"1 A y.i.R s.r J W.;.;.;.;.;.%.%.;.XXXXXX%.%.%.%.%.%.%.%.%.%.+.( ( ( ( ( ( ` %.%.%.%.%.%.%.} ( ( ( ( ( ( ( %.%.%.%.%.%.%.X.X.X.X.X.X.X.+.;.;.;.;.;.N f.a.u.v.R p.",
"> x N R r B l 3 { ;.;.;.;.%.%.%.[.XXXX|.%.%.%.%.%.%.%.%.%.%.+.( ( ( ( ( ( ` %.%.%.%.%.%.%.%.( ( ( ( ( ( ( %.%.%.%.%.%.X.X.X.X.X.X.X.X.X.-.;.;.;.;.A.m.f.n.n.V.m.",
"= y.N s V j.l R `.;.;.;.;.%.%.%..XXX|.=.%.%.%.%.%.%.%.%.%.%.+.( ( ( ( ( ( ` %.%.%.%.%.%.%.%.( ( ( ( ( ( ( %.%.%.%.%.%.%.X.X.X.X.X.X.X.X.*.;.;.;.;.q.s.v.s.R p.v.",
"+ q f C u.R > B ;.;.;.;.;.%.%.%..XXX;.%.%.%.%.%.%.%.%.%.%.%...( ( ( ( ( ( ` %.%.%.%.%.%.%.+.( ( ( ( ( ( } %.%.%.%.%.%.%.X.X.X.X.X.X.X.X.*.;.;.;.;.0.n.s.i.$XN.W ",
"% N T m.u.a.8 1.;.;.;.;.;.%.%.%.XXXX X%.%.%.%.%.%.%.%.%.%.%...( ( ( ( ( ( ` %.%.%.%.%.%.+.( ( ( ( ( ( ( +.%.%.%.%.%.%.X.X.X.X.X.X.X.X.X.*.;.;.;.;.{ C H 9 b x z ",
"& M m.y.g.s.> ,.;.;.;.;.-.%.%.*.XXXX[.%.%.%.%.%.%.%.%.%.%.%.+.( ( ( ( ( ( ( | | | | ` ` ( ( ( ( ( ( ( ..%.%.%.%.%.%.%.X.X.X.X.X.X.X.X.X.+.;.;.;.;.~.u.n.t f.s.x.",
"> S y.S S N q :.;.;.;.;.;.%.%.-.XXXX%.%.%.%.%.%.%.%.%.%.%.%.+.( ( ( ( ( ( ( ( ( ( ( ( ( ( ( ( ( ( ` +.%.%.%.%.%.%.%.%.X.X.X.X.X.X.X.X.X.$.;.;.;.;.~.y.f.D +Xg.+X",
"- N f 5 p x 3 I ;.;.;.;.-.%.%.'.XXXX%.%.%.%.%.%.%.%.%.%.%.%.+.( ( ( ( ( ( ( ( ( ( ( ( ( ( ( ( ( ( ..%.%.%.%.%.%.%.%.+.X.X.X.X.X.X.X.X.X.+.;.;.;.;.|.J z w r x y ",
"; 5 0 q 1 d b ,.;.;.;.;.;.%.%.-.XXXX%.%.%.%.%.%.%.%.%.%.%.%.+.( ( ( ( ( ( ( ( ( ( ( ( ( ( ( ( ( ( ( ` X.%.%.%.%.%.%.X.X.X.X.X.X.X.X.X.X.X.;.;.;.;..Xa.N.E a.R y.",
"5 Q V S y f R ,.;.;.;.;.-.%.%.*.XX.X%.%.%.%.%.%.%.%.%.%.%.%.+.( ( ( ( ( ( ( ' ` ` ' ` ` ( ( ( ( ( ( ( ( | %.%.%.%.%.X.X.X.X.X.X.X.X.X.X.+.;.;.;.;.{ s.s.R x.F.F.",
"< M N 2.l f p.,.;.;.;.;.-.%.%.-.XX.X%.%.%.%.%.%.%.%.%.%.%.%.+.( ( ( ( ( ( ` %.%.%.%.%.%.+.' ( ( ( ( ( ( ( +.%.%.%.+.X.X.X.X.X.X.X.X.X.X.+.;.;.;.;./.b.n.+Xb.x.c.",
"q i.C B v V T 5.;.;.;.;.-.%.%.%.XX.X%.%.%.%.%.%.%.%.%.%.%.%...( ( ( ( ( ( ' %.%.%.%.%.%.%.%.` ( ( ( ( ( ( } %.%.+.X.X.X.X.X.X.X.X.X.X.X.+.;.;.;.;.O.p.G E S Z d ",
"1 b N N s 0 p q ;.;.;.;.;.%.%.%..X.X%.%.%.%.%.%.%.%.%.%.%.%.X.( ( ( ( ( ( ` %.%.%.%.%.%.%.%.| ( ( ( ( ( ( ` %.%.X.X.X.X.X.X.X.X.X.X.X.X.*.;.;.;.;.E.R p.x.W p.W ",
"r C p B l n y.s ;.;.;.;.;.%.%.%. XXX%.%.%.%.%.%.%.%.%.%.%.%.+.( ( ( ( ( ( ` %.%.%.%.%.%.%.%...( ( ( ( ( ( ( %.%.X.X.X.X.X.X.X.X.X.X.X.X.%.;.;.;.;.E.s.v.+Xp.Z Z ",
"5 i.b V b B T s [ ;.;.;.;.-.%.%.[.XX%.%.%.%.%.%.%.%.%.%.%.%.+.( ( ( ( ( ( ` %.%.%.%.%.%.%.%.} ( ( ( ( ( ( ( %.X.X.X.X.X.X.X.X.X.X.X.X.X.-.;.;.;.;.6 m m C J p.Z ",
"; B a x d f N S 0.;.;.;.;.-.%.%.%.XX-.%.%.%.%.%.%.%.%.%.%.%.X.( ( ( ( ( ( ` %.%.%.%.%.%.%.+.( ( ( ( ( ( ( ' X.X.X.X.X.X.X.X.X.X.X.X.X.X.;.;.;.;.;.N c.V.n.s.V.W ",
"1 s 3 w t 5 y.f 5.-.;.;.;.-.%.%.%..X}.%.%.%.%.%.%.%.%.%.%.%.X.( ( ( ( ( ( ` %.%.%.%.%.+.| ( ( ( ( ( ( ( ( } X.X.X.X.X.X.X.X.X.X.X.X.X.+.;.;.;.;._.u J p.p.c.V.b.",
"a x 0 s m : Z y x ;.;.;.;.;.%.%.%.;..X%.%.%.%.%.%.%.%.+.| | ` ( ( ( ( ( ( ( ( ( ( ( ( ( ( ( ( ( ( ( ( ( ( X.X.X.X.X.X.X.X.X.X.X.X.X.X.-.;.;.;.;.oXx c.c.=XV.v.@X",
"5 j S s b n N u.N ) ;.;.;.;.;.%.%.%.XX%.%.%.%.%.%.%.%.| ( ( ( ( ( ( ( ( ( ( ( ( ( ( ( ( ( ( ( ( ( ( ( (  .X.X.X.X.X.X.X.X.X.X.X.X.X.+.;.;.;.;.;.G.x c.$XF.+Xv.@X",
"4 j Q 1.8 f i.Z b 7.;.;.;.;.;.%.%.%.[.[.%.%.%.%.%.%.%.| ( ( ( ( ( ( ( ( ( ( ( ( ( ( ( ( ( ( ( ( ( ( ` | X.X.X.X.X.X.X.X.X.X.X.X.X.X.%.;.;.;.;.=.F J p.N.F.+Xv.*X",
"4 B p 1.r 3 1.B V f ;.;.;.;.;.-.%.%.%..X%.%.%.%.%.%.%.| ( ( ( ( ( ( ( ( ( ( ( ( ( ( ( ( ( ( ( ( ( } X.X.X.X.X.X.X.X.X.X.X.X.X.X.X.+.;.;.;.;.;.!.0 v.v.R c.s.K.@X",
"& 5 < 3 5 9 t 8 r > ~ ;.;.;.;.;.%.%.%.%.[.%.%.%.%.%.%.X.` ` ` ` ` ` ` ( ( ( ( ( ` ` ( ( ( ( X.$.X.X.X.X.X.X.X.X.X.X.X.X.X.X.X.X.X.%.;.;.;.;.#.2 - $ % & X & 1 2 ",
": S y.i.s.S M.F y.m.l.=.;.;.;.;.-.%.%.%.[.%.%.%.%.%.%.%.%.%.%.%.%.%.%.| ( ( ( ` %.X.( ( ( ( %.X.X.X.X.X.X.X.X.X.X.X.X.X.X.X.X.X.+.;.;.;.;.;.w.n.x.a.p.N.c.W V.b.",
"q Q i.Q Z M a.J y.n.y.(.;.;.;.;.;.$.$.%.%.%.%.%.%.%.%.%.%.%.%.%.%.%.%.| ( ( ( ` %.X.( ( ( ( X.X.X.X.X.X.X.X.X.X.X.X.X.X.X.X.X.X.-.;.;.;.;.=.j.N.J H J #Xm.c.J N.",
"3 H u.R s.C G G x g.j.i.|.;.;.;.;.;.+.X.$.%.%.%.%.%.%.%.%.%.%.%.%.%.%.| ( ( ( ` %.X.( ( ( ( X.X.X.X.X.X.X.X.X.X.X.X.X.X.X.X.X.%.;.;.;.;.;.R.*XF.Q s.c.Z.OXp.p.W ",
"9 u.C S y.a.y.y C J Q S e.;.;.;.;.;.;.X.X.X.+.+.%.%.%.%.%.%.%.%.%.%.%.| ( ( ( ` %. .( ( ( ( X.X.X.X.X.X.X.X.X.X.X.X.X.X.X.X.%.%.;.;.;.;._.z.F.V.c.N.#XZ.V.Q K N.",
"% 9 d q x b m w y.x a.p.b.) ;.;.;.;.;.%.X.X.X.X.X.X.X.$.$.%.%.$.%.%.$.$.$.+.X.X.X.X.X.X. .X.X.X.X.X.X.X.X.X.X.X.X.X.X.X.+.%.%.-.;.;.;.;.h.v.c.m.V.#XZ.N.C.b.y.b.",
"; C y.V y.g.i.p.1.G Q v.V.3 ].;.;.;.;.;.%.X.X.X.X.X.X.X.X.X.X.X.X.X.X.X.X.X.X.X.X.X.X.X.X.X.X.X.X.X.X.X.X.X.X.X.X.X.X.X.$.-.-.-.;.;.;.e.v x l q H m Q 3 l x s q ",
"9 n.N n.y.j.u.G S m.i.j.N.= 4.{.;.;.;.;.;.%.X.X.X.X.X.X.X.X.X.X.X.X.X.X.X.X.X.X.X.X.X.X.X.X.X.X.X.X.X.X.X.X.X.X.X.X.+.$.-.;.;.;.;.;.^ F.v.+Xx.b u.c.+Xt n.y.v.#X",
"; f.S S y.V J J ; x l z z : m.9.;.;.;.;.;.;.-.$.X.X.X.X.X.X.X.X.X.X.X.X.X.X.X.X.X.X.X.X.X.X.X.X.X.X.X.X.X.X.X.X.X.+.+.;.-.-.;.;.;._.f g.Z.m.H s p.n.-Xw a.J p.c.",
"3 m.u.1.M x p.p.j M.G y.c.3 S k.<.;.;.;.;.;.;.;.$.X.X.X.X.X.X.X.X.X.X.X.X.X.X.X.X.X.X.X.X.X.X.X.X.X.X.X.X.X.X. .+.%.;.;.;.;.;.;.O.p - R m.S x.A x y.z.8 m.R W R ",
"1 u.S S S S s p.5 m.a.S c.> A H p 7.;.;.;.;.-.-.-.%.X.X.X.X.X.X.X.X.X.X.X.X.X.X.X.X.X.X.X.X.X.X.X.X.X.X.X.X.X.$.;.;.;.;.;.;.;.#.D.y.w A s.s.R J y.b.p.e c t t r ",
"; C y.R 1.Q N z.1 S a.i.OX1 J s N OXP {.;.;.;.;.;.;.;.%.X. .X.X.X.X.X.X.X.X.X.X.X.X.X.X.X.X.X.X.X.X.X.X.X.'.%.;.;.;.;.;.;.;.{ l.a.m.u h c.V v C R p.a.i y.y.p.@X",
"1 T Z j d.N d.p.5 H S Z OX1 x C J OX> G.|.;.;.;.;.;.;.;.;.%.+.X.X.X.X.X.X.X.X.X.X.X.X.X.X.X.X.X.X.X.X.$.-.;.;.;.;.;.;.;.;.I.M.i.v.n.u m v.R F u.p.W m.e s.p.R +X",
"$ w 3 9 ; : d y 1 < 5 - 2 . @ + % < @ 3 1 ) ;.;.;.;.;.;.;.;.;.-.+.+.X.X.X. .X. .X.X.X.X.X.X. .$.$.%.-.;.;.;.;.;.;.;.;.=.6 r q q r r r $ w 8 z a b q T - s f r r ",
"; C T i.f.a.Z Z i.k.f.i.W - T y.C.p.s.n.b p.9.;.;.;.;.;.;.;.;.;.;.;.;.-.%.-.$.$.$.$.$.$.*.%.-.;.;.;.;.;.;.;.;.;.;.;._ 2.N r b b Y N b h b n N S G z b Z A R a.c.",
"; C V u.i.u.g.T T R a.m.m.1 u.f.v.s.c.v.H j.R M.W.;.;.-.;.;.;.;.;.;.;.;.;.;.;.;.;.;.;.;.;.;.;.;.;.;.;.;.;.;.;.;.].9.Q S v.9 V y.C u.s f s.y.y.g.j.p.#XM.u.=Xv.V.",
"5 T C S E T S f i.R j.S.a.8 y.v.i.u.S a.m F.n.g.V.A.w.{.;.;.;.;.;.;.;.;.;.;.;.;.;.;.;.;.;.;.;.;.;.;.;.;.;.;./.e.Y f.S y.u.m T u.y.S l e S 1.f.m.Q j.2.j.u.a.v.N.",
"s V u.C M S f e T 1.i.T E t T m.R a.a.C.8 l C m v b & j Q.~.;.;.;.;.;.;.;.;.;.;.;.;.;.;.;.;.;.;.;.;.-.@./ I d.E u.V y.n n e S m.Z f 9 t R T u.s.u.y.J u.F.j.v.a.",
"; j N S S S N d T j.f.E s.+ r f z R C n.1 c.c.s.p.c.a R V.y.h.!.^.;.;.;.;.;.;.;.;.;.;.;.;.;.;.;.@.w.8.d N r 5 d s G - q d r r r d b y f u.y.S S a.s.S i.y.f.g.x.",
"3 B N B S m x q V V f.1.R z c Z c 8 a b q n.s.S S s.f 1 v Z m R A s k 6.q.q.E.Y.] ~./.w.r.>.,.z C g.u.s n t N u.T a.1 1.u.C d.V C N S > 1.Z 0 x u.R S S R g.R x.",
"3 S N V i.V m.N Z C Z V 2 b S u.R C g.V.e C y.s J s.y C b.m.V.Z.C.M.s.M.s.s.V.p.z c.j.a.M s S F y.m.u.S A w N d T y.8 V Z d.u.T N S y.X 0 p = 3 p q 1 q 8 r h y ",
"$ Q M a d q q 3 5 s p Z A 9 a.Z s.S i.N.s V.u.n.a.v.1 x F.v.N.v.#Xs.A N.n.n.F.R i v.N v.J 7 S x y R x d t o V N x H = x b f.b A x f b q d S V C i.N y.S.v.S f.W ",
"$ q 4 f B f B C Z T x y.v.p i.V V Z s.u.e y.S s.g.p.y s $Xb.s.c.p.p.s.&Xg.p.V.J C v.s.y.Q H J s.C.z u.C n.2 k.T N a.7 0 r s r 5 s s 5 9 d.S C y.T C d.F.d.B E a.",
"3 V f S S.f b V y.V N j.R 1 N 0 9 e s s s x N y.v.E r A +XZ.s.J Q Q N.M.%Xs.p.G N N M i s.v H p.i.w S Q A 8 1.k.Y i.> N u.Y b l V N x 0 M N M V b m V a.M C Z v.",
"5 f 2.d.y.f B V u.Z f x v.o p C C g.s.J t R s.J s.V.9 C n.F.p.c.N.A c.n.K.n.n.p.s H A M s.K s.z a.s S J p.y j C N u.1 f V V b t C V l ; N f 1.V u.d f.d.n V b v.",
"= B V V S j T 2.u.N N B W $ S B S Z i.G q b R s.u.p.1 J V.p.n.*Xa.V.n.p.a.n.p.c.x Q A Q n.s j.s x l S y.S t T B V g.5 Z V T Y q f 1.p 3 i f Q V f M N j.f i.T V.",
"3 f a N V f C 2.Y T 2.T T $ x Y x f R m > b R d b s.& N a.y.p.y.J p.R S C f x x > s x d N 9 s w e > e N Q q p B r j ; j 5 3 f & p < q $ < < 4 g q 3 p a p f a B "
};
