/* XPM */
static char *_a70224976cf49fee595d8f1dd7ce816s9JEBhLiiH5wkECR[] = {
/* columns rows colors chars-per-pixel */
"80 80 227 2 ",
"   c #030303",
".  c #0B0806",
"X  c #0B0B0B",
"o  c #180D04",
"O  c #1B1005",
"+  c #161616",
"@  c #271505",
"#  c #25160A",
"$  c #341B04",
"%  c #3B1E03",
"&  c #3D2206",
"*  c #3F230A",
"=  c #322F1F",
"-  c #3B3826",
";  c #422205",
":  c #492606",
">  c #44280C",
",  c #562C05",
"<  c #5E3105",
"1  c #622F02",
"2  c #643304",
"3  c #6C3602",
"4  c #6F3804",
"5  c #64310E",
"6  c #69340B",
"7  c #6D3A0F",
"8  c #723A02",
"9  c #733E0A",
"0  c #6D3A10",
"q  c #733D10",
"w  c #443A29",
"e  c #433D2B",
"r  c #7B430B",
"t  c #7A450D",
"y  c #6C471D",
"u  c #744313",
"i  c #7F4810",
"p  c #74471A",
"a  c #7A5717",
"s  c #46422E",
"d  c #4A442E",
"f  c #4B4532",
"g  c #4B4737",
"h  c #4D4834",
"j  c #574833",
"k  c #524B35",
"l  c #534D3A",
"z  c #595137",
"x  c #56523D",
"c  c #5A543D",
"v  c #754B23",
"b  c #7A5228",
"n  c #695435",
"m  c #795A38",
"M  c #76613B",
"N  c #4B4744",
"B  c #565544",
"V  c #5A5542",
"C  c #5E5945",
"Z  c #5D5A49",
"A  c #575757",
"S  c #625C45",
"D  c #625D4A",
"F  c #5F624F",
"G  c #696246",
"H  c #64614B",
"J  c #6A644C",
"K  c #6C694D",
"L  c #7A6749",
"P  c #726A4E",
"I  c #6B6552",
"U  c #6A6757",
"Y  c #6D6B53",
"T  c #736D53",
"R  c #7B6B52",
"E  c #726D5B",
"W  c #747255",
"Q  c #7A7456",
"!  c #75735A",
"~  c #7A755B",
"^  c #7A785A",
"/  c #7D795C",
"(  c #746F60",
")  c #7A7764",
"_  c #7D7B62",
"`  c #965E07",
"'  c #834D15",
"]  c #864F18",
"[  c #895219",
"{  c #8B541B",
"}  c #91591E",
"|  c #9B6717",
" . c #A46801",
".. c #A36908",
"X. c #B47700",
"o. c #B47801",
"O. c #B2790A",
"+. c #B77A08",
"@. c #BC7E0C",
"#. c #AC7517",
"$. c #AA781A",
"%. c #8F5B22",
"&. c #925D23",
"*. c #8B6824",
"=. c #956626",
"-. c #966329",
";. c #99662C",
":. c #9A692E",
">. c #97752C",
",. c #85683A",
"<. c #9E6D32",
"1. c #997631",
"2. c #9D7C32",
"3. c #AD7F26",
"4. c #A67328",
"5. c #A06F34",
"6. c #A37237",
"7. c #A47438",
"8. c #A87B39",
"9. c #8C754A",
"0. c #88754D",
"q. c #877857",
"w. c #837C5D",
"e. c #837D63",
"r. c #897E63",
"t. c #827E6A",
"y. c #887B73",
"u. c #7F8066",
"i. c #BD820D",
"p. c #BF8413",
"a. c #AC8024",
"s. c #A68238",
"d. c #A4833B",
"f. c #C08614",
"g. c #C58619",
"h. c #C38A1A",
"j. c #C7891B",
"k. c #C48A20",
"l. c #CC8D22",
"z. c #D08E25",
"x. c #CE9227",
"c. c #C79128",
"v. c #CD9429",
"b. c #CE982D",
"n. c #D3942B",
"m. c #D1962A",
"M. c #CE9B33",
"N. c #CB9A3A",
"B. c #D99532",
"V. c #D59B34",
"C. c #D79B36",
"Z. c #D5A13B",
"A. c #DBA33D",
"S. c #E0A23F",
"D. c #8B825B",
"F. c #99875B",
"G. c #A78646",
"H. c #A7874C",
"J. c #B39258",
"K. c #848164",
"L. c #8A8464",
"P. c #8E8A66",
"I. c #868369",
"U. c #8A866A",
"Y. c #8C8A6C",
"T. c #918968",
"R. c #928C6D",
"E. c #95906E",
"W. c #898672",
"Q. c #8D8B72",
"!. c #938D73",
"~. c #908D78",
"^. c #959274",
"/. c #9A9474",
"(. c #9E9977",
"). c #969279",
"_. c #9A9679",
"`. c #9A957B",
"'. c #9D9A7B",
"]. c #B09562",
"[. c #A39975",
"{. c #A29D7D",
"}. c #BFA573",
"|. c #C79740",
" X c #D6A646",
".X c #DBA644",
"XX c #DBA845",
"oX c #DCAB4B",
"OX c #DEAE52",
"+X c #DDB055",
"@X c #E1A946",
"#X c #E3AE4C",
"$X c #E4B04D",
"%X c #E0AD51",
"&X c #E5B451",
"*X c #E7B75A",
"=X c #E7BA5E",
"-X c #E9B95E",
";X c #C4A56B",
":X c #CBAA6C",
">X c #C8AB76",
",X c #E7BB64",
"<X c #EABD64",
"1X c #EBC26D",
"2X c #E9C371",
"3X c #8A8985",
"4X c #918F8C",
"5X c #999583",
"6X c #959595",
"7X c #999996",
"8X c #989898",
"9X c #A39D83",
"0X c #A39C8C",
"qX c #B19E81",
"wX c #AAA384",
"eX c #A8A386",
"rX c #B4AA88",
"tX c #B6B190",
"yX c #A4A4A4",
"uX c #ACADAC",
"iX c #B4B4B4",
"pX c #BBBBBB",
"aX c #C2C2C2",
"sX c #CBCBCB",
"dX c #D4D4D4",
"fX c #DCDCDC",
"gX c gray88",
/* pixels */
"l S z J T S J q.w.J T P ~ j G T C K P J P C w.T P P z S r./ Y.W.e.W.!.S ) r.E T V / / K / t.Z ~ e.W ~ ~ e.w K K.U.~ _ e.c ! ~ _ K./ K S T T ! _ U.!.K.I _ / w.Q ",
"- P.w.U.!.) r././.Y.(.^.9Xe ^.R.P./.wX'.{.E 9XK.`.!.P Y wX`.0.q 8 v 9.Y !.Q.) ( I E.(.) Y.L.D / K.W K._ /.- ) {.!./._.Q.U ^.Y./.^.Y.U '.P.^.u.'.^.Y.Q.( E.5X`.eX",
"h H K.D.K.! e.E.'.R.e.^.t.l !.(._.'.'.Q.P.U rXtX9X0X~ J b 9 8 9 ' 9 8 9 ,.~ _ ) V Q.'.K./.I.Z e.) ! K.I.I.e Y 5XwXeX).W.U _.'._.W._ H I.5Xu.K._.).U._ U Y.U.~.9X",
"- / K.R.L.E W K.T././ e.T.l !.I.'./._.)._.Y W.tX0Xr.b 4 8 ' &.6.<.7.&.t 8 9 b R H E._ _ !.Q.l _ Y.e.J /.).w / I.Y.wXY.I.E )._ /.Q.u.Z W Y.Q.Y.U.~.I.Z l ).`.^.'.",
"s K.Q E.U./ J H I g I C E k Y.Y.Y.!./.rX_.U !.0.u 8 8 ' ;.5.5.6.6.8.6.6.;.' 8 8 t L t.Y e.Q.l w.R.K.w.^ U.z B J Z C D Z B !.Y.Q.u.I.Y D u.! U B x I ) _ U _._.).",
"d D.K.^ ^.H L.K./ I P.E.U.f U.9X!.Y.!.[.).,.u 8 9 { :.:.-.{ { &.<.6.6.6.6.7.<.{ 9 8 t m _ E s r.P.! ^ K.e.s / (.).Z E.Y.~.E !.H Y.Y.) H ^ W Y _ F u.) W.g './.~.",
"h w.D.L.w.I ^.K.R.Z R.R.'.w D J c V L b 4 4 ' &.<.-.&.} [ [ } { { &.;.6.7.8.7.6.5.&.t 8 8 b j Y./ P._ ^.I.h _ ^.'.Z ! W.`.E '.) U.u.E U.Q.! _ u.e.Q.^.'.B u.wX).",
"- K.K.P.K.J U.K.U.Z _ I.).e W T.L 9 8 8 ' ;.5.-.} { { { { { } [ { { { &.&.5.5.7.7.8.7.:.' 8 8 u m / E.r._ = ! ^.'.C K._ I.! ^./._.! I u._.u.I.E (.wX^.P.g u.'.Q.",
"s x l C c x D J I g ) /._.e ,.q 8 9 [ 6.:.;.{ { { { [ { } { { { { { { { } { &.<.6.5.7.6.6.5.{ 9 8 9 n ! e.e ! Y.eXl Y.Y ^ ) Q.Y.E.E.I ^ I.Y./ Z K E V s h B C J ",
"k / ^ D./ T K.L./.Z e.!.Q.v 8 r &.7.;.} } { { { { { { { { { [ { ' { { { { { { { &.;.7.6.6.7.6.5.&.9 8 b W B Y E.eXZ ! Y Q.( '.D.F.D.0.0.D.R.K.H P./ u.! ! ~ /.t.",
"d u.^ ^ Q ! w._ e.D !.( 0.8 i <.&.&.{ { } { { } { } [ { { ' r 8 8 8 9 ' { { { { { { } -.6.6.6.6.7.6.i 8 R e / I._ l Q.^ ^ I 9.X.o.o.X.o.o.O.q.H U.W P.!.T.~ ~ U.",
"s W W w.P./ L.R.t.f L.0.4 9 %.{ { { } { } { { { { ' ' 9 8 8 8 : $ , 4 8 8 9 i ' { { { { { &.;.5.6.6.6.8 9 w ~ L.Q.C R.K.B 9.o.o.o.N.+X+XZ.X.O.q._ W Y.R.R._ ) U.",
"k / W D.L.J R./.r.g w.u 8 ' { { { { { { { { { r 9 8 8 8 : @           @ : 8 8 8 t t ] { { { { &.;.8.6.<.9 t J ~ ! k U._ G O.O. X+.i.=X2X2X Xo.$.Y F T W J ~ Q r.",
"d x l x l x x d S k y 8 ' } { { { { { ' ' 8 8 8 3 : @                       @ : 2 8 8 8 ' ] { { { 6.5.7.{ 8 y D T S x B $.X.Z.#XM.o.i.&X1X2Xb.o.*.C h K I P T D ",
"s W H ! Q w.Q.Z t.m 8 9 { { { { ] r 8 8 8 2 % O                                   o ; 3 8 8 8 ' %.{ 5.7.7.' 8 m !.R.W.d.o.h.#X$X$Xh.o.b.&X1X1Xp.o.M ! E.!.T.E.!.",
"h D.P W w.T.!.D L 8 8 ] { { { { ' 8 2 ; O                     X X .                     @ ; 2 8 r { &.6.7.<.9 8 L.r._ o.+.A.#X$X$XoXo.+.#X*X2X+Xo.| ^ U.w.L.R.!.",
"s ^ W D.P.W D./ 9 8 { { { { { ' 8 ,                     X X + + + + + X .                     , 8 ' { &.7.8.:.9 9 r.9.+.j.S.f.A.g.oXf.X.#X#X-X1Xo.$.^ _ /.D./ U.",
"- D.T W u.Q ^.u 8 ' { { { { } 8 3 o             . X + + + + + + + + + + + + + X               o 4 8 ] { :.6.6.&.8 v 9.X.j.f.X.x.X.f.v.X. X&X$X1Xj.+._ ^ P.R.w.t.",
"s H K K L.L.m 4 r { { { { } 9 8 @           X + + + + + + + + + + + + + + + + + + + X .         @ 8 9 { { 6.5.7.' 8 ` X.i.+.X.x.X.+.+.X.A.$X$X*Xh.o.I.W Q T.t.e.",
"d D.D.u.w.0.4 r ] { } { { r 8 :     . X + + + + + + + + + + + + + + + + + + + + + + + + + X       , 8 ' { %.7.7.5.r ` X.X.#Xo.v.X. XX.X.v.#X$X&XN.o.q.W Q /.[.).",
"s P r./ w.9 8 { { { { { ' 8 , .     + + + + + + + + + + + + + + + + + + + + + + + + + + + + + .   . < 8 ] { &.6.6.;...X.+.-XX.v.X.<XX.X.v.$X$X&XZ.o.,.q.D.P.U.Y.",
"e K D.r.u 8 ' { { { { { 8 3 o     + + + + + + + + + + + + + + + + + + + + + + + + + + + + + + +     O 8 9 { } ;.6.8.O.X.f.-XX.b.X.,Xg.X.f.$X$X$X+Xo.2.^ W D.D.~ ",
"- W D.%.8 t { { { { { r 8 $     + + + + + + + + + + + + + + + + + + + + + + + + + + + + + + + + X     % 8 9 { { 5.7.o.o.v.-Xo.v.X.*XM.o.+.#X$X&X<Xo.3./ ^ D.u._ ",
"d Q L 8 9 { { { { { ' 8 <     X + + + + + + + + + + + + + + + + + + + + + + + + + + + + + + + + + X   . < 8 ' { &.4.o.o.V.-Xo.v.X.&X Xo.o.$X$X$X,X@.#.L.Z L.K.W ",
"- Q 8 8 { { { { { ] 8 8 X   . + + + + + + + + + + + + + + + + + + + + + + + + + + + + + + + + + + + .   o 8 8 { { | X.X.XX-Xo.m.X.#X+XX.X..X$X&X,Xp.X.w.Q L.~ e.",
"g u 8 9 { { { { { 9 8 @     + + + + + + + + + + + + + + + + + + + + + + + + + + + + + + + + + + + + +     @ 8 9 } | X.+.#X-XX.v.o.@X1XX.X.A.$X$X*Xb.+.q.w.Q ~ ~ ",
"p 8 6 7 { { } } t 8 %     X + + + + + + + + + + + + + + + + + + + + + + + + + + + + + + + + + + + + + X     ; 8 ' ..X.k.$X-Xo.x.o.@X1Xh.X.c.#X$X&XN.X.M j d j s ",
"8 4 5 7 { { { ' 8 1     X + + + + + + + + + + + + + + + + + + + + + + + + + + + + + + + + + + + + + + +       < 4  .X.l.$X-Xo.v.o.@X=Xc.X.h.$X$X#XoXX.a T w.r.).",
"8 4 5 7 } { } ' 8 %     + + + + + + + + + + + + + + + + + + + + + + + + + + + + + + + + + + + + + + + + +     % 8  .o.V.$X-Xo.x.o.@X*XM.X.f.$X$X&XOXX.a L.{.{.9X",
"8 4 5 q { { %.' 8 %   X + + + + + + + + + + + + + + + + + + + + + + + + + + + + + + + + + + + + + + + + + X   % 8  .X.C.$X<Xo.x.o.@X&XM.X.f.&X&X#XoXX.*.Y.[.!.Q.",
"8 4 5 7 { { { ' 8 % X + + + + + + + + + + + + + + + + + + + + + + + + + + + + + + + + + + + + + + + + + + + . N 7X3.o.V.&X-Xo.v.o.@X$XN.X.h.$X&X#XXXX.>.Y././ !.",
"8 4 5 7 { %.{ ' 8 ; + + + + + + + + + + + + + + + + + + + + + + + + + + + + + + + + + + + + + + + + + + + + + A 7X3.o.V.$X-Xo.v.o.@X$Xb.o.p.&X$X#X.XX.*.~ K.e._.",
"8 4 5 0 { [ { ' 8 > + + + + + + + + + + + + + + + + + + + + + + + + + + + + + + + + + + + + + + + + + + + + + A yX3.X.C.#X<Xo.v.X.@X$Xb.X.f.$X$X$XXXX.2.L.!.t.I.",
"8 4 5 7 { [ } ] 8 > + + + + + + + + + + + + + + + + + + + + + + + + + + + + + + + + + + + + + + + + + + + + + A 8Xa.X.C.$X,XX.x.X.@X$Xb.X.f.$X$X$XXXX.2.^.^././.",
"8 3 5 0 { &.{ ] 8 > + + + + + + + + + + + + + + + + + + + + + + + + + + + + + + + + + + + + + + + + + + + + + A 8X3.O.C.$X-Xo.v.o.@X$Xb.X.f.$X$X#X.XX.d.P.K.t.!.",
"8 4 5 7 { { { ' 8 > + + + + + + + + + + + + + + + + + + + + + + + + + + + + + + + + + + + + + + + + + + + + + A 8Xa.+.C.$X-XX.v.o.@X$Xb.X.f.$X$X$X.XX.2.L.wX/.t.",
"8 4 5 7 { { { ' 8 > + + + + + + + + + + + + + + + + + + + + + + + + + + + + + + + + + + + + + + + + + + + + + A 8X3.X.C.$X-Xo.v.o.@X$Xb.o.f.#X$X$X.Xo.1.V E E I ",
"8 8 5 7 { { { [ 8 > + + + + + + + + + + + + + + + + + + + + + + + + + + + + + + + + + + + + + + + + + + + + + A 8X3.X.m..X&XX.v.o.C.@Xv.o.f.$X$X&X.Xo.d.D E.Y.W.",
"8 4 5 7 { [ [ ' 8 > + + + + + + + + + + + + + + + + + + + + + + + + + + + + + + + + + + + + + + + + + + + + + A 8X3.X.f.j.j.X.v.o.g.j.f.X.g.&X$X$X.Xo.d.E 9XR.{.",
"8 4 5 7 { { [ ' 8 > + + + + + + + + + + + + + + + + + + + + + + + + + + + + + + + + + + + + + + + + + + + + + A 8X3.X.@.p.f.p.A.f.f.f.f.o.f.$X$X$X.XX.>.S S T D ",
"8 4 5 7 { { { { 8 > + + + + + + + + + + + + + + + + + + + + + + + + + + + + + + + + + + + + + + + + + + + + + A 8X3.X.B..X#X*X#X#X#X&X$XX.f.&X&X$X.XX.d.t.Y.e.r.",
"8 4 5 7 { { { ' 8 > + + + + + + + + + + + + + + + + + + + + + + + + + + + + + + + + + + + + + + + + + + + + + A 8X3.X.@.f.f.g.#X&X&X#X&XX.f.&X$X#XXXX.>.e.W.{.{.",
"8 4 5 7 { { { ' 8 > + + + + + + + + + + + + + + + + + + + + + + + + + + + + + + + + + + + + + + + + + + + + + A 8X3.X.l.N.N.H.0X7X0X:X%XX.f.#X$X&XXXX.G.3X^.Q.W.",
"8 8 5 7 { } { ' 8 > + + + + + + + + + + + + + + + + + + + + + + + + + + + + + + + + + + + + + + + + + + + + + A 8X3.X.oX>X7X8XuXpXyX7X+XX.g.$X$X#X.XX.G.7X3X_ J ",
"8 4 5 7 { { { ' 8 > + + + + + + + + + + + + + + + + + + + + + + + + + + + + + + + + + + + + + + + + + + + + + A 7X3.X.J.8XyXdXgXfXfX8XqXo.f.#X#X$XXXX.].yX6X3XW.",
"8 4 5 q { { { ' 8 > + + + + + + + + + + + + + + + + + + + + + + + + + + + + + + + + + + + + + + + + + + + + + A 8X3.$.8XuXdXdXfXfXfXiX7X@.f.$X&X#XXX+.:XfXyX6X) ",
"8 4 5 7 { { { ' 9 > + + + + + + + + + + + + + + + + + + + + + + + + + + + + + + + + + + + + + + + + + + + + + w y.$.].6XsXfXdXdXdXfXsX8Xd.f.#X&X#X.X+.:XgXfX8X3X",
"8 4 5 6 { { { ' t , + + + + + + + + + + + + + + + + + + + + + + + + + + + + + + + + + + + + + + + + + + + + + > 1 ..4XuXdXdXdXdXfXfXgX7XH.f.&X$X$X@Xo.:XfXgXyX8X",
"8 4 5 0 } { { ' 8 : + + + + + + + + + + + + + + + + + + + + + + + + + + + + + + + + + + + + + + + + + + + + + > 4 :.8XiXdXdXdXdXfXdXgX8XH.f.$X$X$XXXX.;XdXfXiX8X",
"8 4 5 7 { { ] [ 8 > + + + + + + + + + + + + + + + + + + + + + + + + + + + + + + + + + + + + + + + + + + + + + > 8 >.8XiXdXdXdXdXdXdXfX8XH.f.$X&X$X.XX.;XdXfXpX8X",
"8 4 5 0 { { { ' 8 > + + + + + + + + + + + + + + + + + + + + + + + + + + + + + + + + + + + + + + + + + + + + + > 8 ..8XuXsXdXdXdXdXdXfX8XH.p.&X#X&XXXX.;XdXdXiX8X",
"8 4 5 7 { { } ] 8 > + + + + + + + + + + + + + + + + + + + + + + + + + + + + + + + + + + + + + + + + + + + + + > 8  .9XyXaXdXdXdXdXdXsX8XH.f.#X$X$X.XX.;XdXdXyX4X",
"8 4 5 7 { { { ' 8 > + + + + + + + + + + + + + + + + + + + + + + + + + + + + + + + + + + + + + + + + + + + + + > 8  .8.8XiXaXdXdXdXdXpX8Xa.f.$X$X&XXXX.;XdXpX8X4X",
"8 8 5 7 { { { ' 8 > + + + + + + + + + + + + + + + + + + + + + + + + + + + + + + + + + + + + + + + + + + + + + > 8 ..@.5X8XpXsXsXfXdXyX7XX.f.$X$X$XXXX.;XsX6X6XH ",
"8 4 5 0 { { } ' 8 > + + + + + + + + + + + + + + + + + + + + + + + + + + + + + + + + + + + + + + + + + + + + + > 8  .X.N.0X8XuXpXaXiX8X;Xo.f.$X$X&X.XX.J.6X6X5X!.",
"8 4 5 0 { { { ' 8 > + + + + + + + + + + + + + + + + + + + + + + + + + + + + + + + + + + + + + + + + + + + + + > 8  .+.C.OXqX8X8X8X8X0X&XX.f.$X&X$XXXX.H.4XQ.) ^.",
"8 4 5 q { { { ' 8 > + + + + + + + + + + + + + + + + + + + + + + + + + + + + + + + + + + + + + + + + + + + + + > 8  .X.j.z.B.#.].}.;X$X$Xo.p.$X$X$XXXo.d.5XW.I._ ",
"8 4 6 7 { { { ' 8 > + + + + + + + + + + + + + + + + + + + + + + + + + + + + + + + + + + + + + + + + + + + + + > b ..X.X.O.X.X.@X$X$X$X$Xo.f.&X$X$XXXo.G.'.u.) 5X",
"8 4 5 7 { { { ' 8 > + + + + + + + + + + + + + + + + + + + + + + + + + + + + + + + + + + + + + + + + + + + + + A 8X3.X.B.A.&X%X#X$X$X$X&Xo.p.$X$X$XXXo.s.'.^._ ^.",
"8 4 5 7 { { { ' 8 > + + + + + + + + + + + + + + + + + + + + + + + + + + + + + + + + + + + + + + + + + + + + + A 8X3.X.l.C.A.A.$XA.Z.XXA.o.f.$X$X$X Xo.*.F Y H C ",
"8 4 5 7 { { { ' 8 > + + + + + + + + + + + + + + + + + + + + + + + + + + + + + + + + + + + + + + + + + + + + + A 8X3.X.X.o.o.o.m.X.X.+.+.o.p.$X$X$X.Xo.1.^.I.Q.wX",
"8 4 5 7 { { { ' 8 > + + + + + + + + + + + + + + + + + + + + + + + + + + + + + + + + + + + + + + + + + + + + + A 8X3.o.oX1X1XX.x.X.<X<XN.o.p.$X$X$XXXo.2.U./ K.Q.",
"8 4 5 7 { { { ' 8 > + + + + + + + + + + + + + + + + + + + + + + + + + + + + + + + + + + + + + + + + + + + + + A 8X3.X.XX<X1Xo.x.o.,X1XN.o.p.$X$X&X.XX.>.^.I.K.t.",
"8 4 6 7 { { { ] 8 > + + + + + + + + + + + + + + + + + + + + + + + + + + + + + + + + + + + + + + + + + + + + + A 8X3.X.V.$X-Xo.x.o.@X$Xb.o.f.$X#X$X XX.*.U J Z S ",
"8 4 5 7 { { { ' 8 > + + + + + + + + + + + + + + + + + + + + + + + + + + + + + + + + + + + + + + + + + + + + + H 8X3.X.C.&X=XX.x.X.@X$Xb.o.p.$X&X&XXXX.2.K.K.L.9X",
"8 4 5 7 { { { ' 8 > + + + + + + + + + + + + + + + + + + + + + + + + + + + + + + + + + + + + + + + + + + + + + A 8X3.X.V.#X=XX.b.X.@X$Xb.X.p.$X$X$XXXX.1.Y.I.t.9X",
"8 4 5 7 { { { ' 8 > + + + + + + + + + + + + + + + + + + + + + + + + + + + + + + + + + + + + + + + + + + + + + A 8X3.o.V.$X=Xo.v.X.@X$XV.o.f.$X$X$XoXX.a J J C C ",
"8 4 5 7 } { } ' 8 > + + + + + + + + + + + + + + + + + + + + + + + + + + + + + + + + + + + + + + + + + + + + + A 8X3.o.V.$X-Xo.v.X.@X$Xb.o.p.&X$X$X.XX.>.~ e.Y.!.",
"4 4 5 7 { { { ' 8 > + + + + + + + + + + + + + + + + + + + + + + + + + + + + + + + + + + + + + + + + + + + + + A 8X3.X.V.$X,XX.z.o.@X$XV.o.p.$X$X&X.Xo.d.L.rX!._.",
"8 4 5 7 %.{ { ' 8 > + + + + + + + + + + + + + + + + + + + + + + + + + + + + + + + + + + + + + + + + + + + + + A 8X3.X.V.#X-XX.x.o.XX$Xb.X.f.$X$X$XoXX.2.I.L.^._.",
"8 4 5 7 { { { ' 8 > + + + + + + + + + + + + + + + + + + + + + + + + + + + + + + + + + + + + + + + + + + + + + A 8X3.X.V.$X<XX.x.o.@X$Xb.o.f.$X&X$X.XX.2.[.^.R.I.",
"8 4 5 7 } { { ' 8 > + + + + + + + + + + + + + + + + + + + + + + + + + + + + + + + + + + + + + + + + + + + + + A 8X3.X.V.$X1XX.x.X.@X$Xb.o.f.$X$X$X.Xo.2.D.E.R.W.",
"8 4 5 7 { { { ' 8 > + + + + + + + + + + + + + + + + + + + + + + + + + + + + + + + + + + + + + + + + + + + + + A 8X3.+.V.#X,XX.v.X.@X$Xb.X.f.$X$X$X.Xo.2.e.R.D.W.",
"8 4 5 7 { { { ' 8 ; + + + + + + + + + + + + + + + + + + + + + + + + + + + + + + + + + + + + + + + + + + + + + A 8X3.X.V.#X*XX.n.X.$X$Xb.X.f.$X&X$X.XX.*.V S I D ",
"8 4 6 q { { { ' 8 > + + + + + + + + + + + + + + + + + + + + + + + + + + + + + + + + + + + + + + + + + + + + + - y.$.X.n.@X#XX.n.X.V.S.v.X.f.$X#X$XXXX.d.E.~ R.t.",
"8 4 5 5 0 q q 6 8 ; X X X X X X X + X X X X X X X + X X X + X X X X X X X X X X + X X X X X X X X X + + X X X & 1  .X.@.@.f.X.z.X.@.i.+.X.f.$X$X&XXXo.8.T.~ r.U.",
"8 4 5 5 5 5 5 6 8 ; X . X X X X X X X X X X X . X X X X X X . X X X X X X X . X X X X X . X X . X X X X X X X & 8  .X.g.g.g.g.m.j.g.g.j.o.f.B.B.C.n.o.2.K Q / !.",
"8 4 5 5 5 5 5 6 8 * X . X X . . X X . X X X X X . X . . X X X X X X X . . X X X X X . . X X X X X X X X X X . & 8  .X.B.B.B.B.B.B.B.B.B.X.@.B.B.B.n.o.s.W ^ Y !.",
"8 8 6 6 6 6 6 6 8 : # # # # # # # # O # # # # # o # # # # # # # # # # # O # # # # # O # # # # # O # # # # # # : 8  .X.l.v.m.z.z.n.n.n.z.X.@.z.z.z.l.X.s.Y L.w./.",
"9 8 8 8 8 8 8 8 8 8 8 8 4 8 8 8 4 8 8 9 8 8 8 8 8 8 8 8 8 8 8 3 8 4 8 8 8 8 8 8 8 8 9 4 8 8 8 8 9 8 8 4 4 4 8 8 8  .X.X.X.X.X.X.X.X.o.X.X.X.X.X.o.X.X.=.G K G ~ "
};
