/* XPM */
static char *_c845d2bc409423bee1e21fe1df92840cp9p6a6EfkyX3BDd[] = {
/* columns rows colors chars-per-pixel */
"80 80 232 2 ",
"   c #020202",
".  c #0B0703",
"X  c #0C0C0C",
"o  c #18110A",
"O  c #161616",
"+  c #1B1B1B",
"@  c #2B1D0A",
"#  c #352408",
"$  c #2E2512",
"%  c #362713",
"&  c #232323",
"*  c #2C2C2C",
"=  c #3C3828",
"-  c #3D3D3D",
";  c #4E2B01",
":  c #523312",
">  c #64310E",
",  c #6C3709",
"<  c #723A02",
"1  c #743E09",
"2  c #6F3E12",
"3  c #473C25",
"4  c #433D2B",
"5  c #5B3F21",
"6  c #5C411B",
"7  c #774008",
"8  c #7A430B",
"9  c #7F480E",
"0  c #674418",
"q  c #6D4B1A",
"w  c #774617",
"e  c #744F10",
"r  c #45412D",
"t  c #4B442E",
"y  c #584626",
"u  c #4A4533",
"i  c #4A4737",
"p  c #4D4935",
"a  c #504732",
"s  c #524C35",
"d  c #534E3A",
"f  c #585136",
"g  c #55523D",
"h  c #5A543D",
"j  c #684E29",
"k  c #764B21",
"l  c #784D22",
"z  c #775829",
"x  c #7B5934",
"c  c #575443",
"v  c #5A5542",
"b  c #5E5A45",
"n  c #5D5A49",
"m  c #595650",
"M  c #625C45",
"N  c #685840",
"B  c #625D4B",
"V  c #765D41",
"C  c #5F614D",
"Z  c #666246",
"A  c #65624C",
"S  c #6A644C",
"D  c #6D6A4D",
"F  c #776548",
"G  c #726B4E",
"H  c #6B6552",
"J  c #696656",
"K  c #6D6A53",
"L  c #726D53",
"P  c #7C6D52",
"I  c #726D5A",
"U  c #747255",
"Y  c #7A7455",
"T  c #75735A",
"R  c #7A755A",
"E  c #79785A",
"W  c #7D7A5D",
"Q  c #7D7B63",
"!  c #7B7865",
"~  c #77756D",
"^  c #88510A",
"/  c #985902",
"(  c #834D14",
")  c #844D1A",
"_  c #88571A",
"`  c #8A541C",
"'  c #945C16",
"]  c #90571D",
"[  c #925A1E",
"{  c #9A670C",
"}  c #9C6611",
"|  c #9F7013",
" . c #A56B07",
".. c #A96E07",
"X. c #A4690D",
"o. c #AA6E08",
"O. c #AD7107",
"+. c #B47701",
"@. c #B47801",
"#. c #B77908",
"$. c #BC7E0C",
"%. c #BF6916",
"&. c #A27314",
"*. c #8E5A21",
"=. c #925D23",
"-. c #985D20",
";. c #846526",
":. c #87692A",
">. c #8A6B2B",
",. c #946027",
"<. c #966429",
"1. c #9A662B",
"2. c #9B692E",
"3. c #9E6C31",
"4. c #927232",
"5. c #AE7A28",
"6. c #A06E32",
"7. c #A37236",
"8. c #A47438",
"9. c #A8793A",
"0. c #C16A17",
"q. c #C36C19",
"w. c #C67619",
"e. c #CB7E22",
"r. c #887052",
"t. c #837559",
"y. c #827D5D",
"u. c #837D62",
"i. c #8B7C66",
"p. c #827F6A",
"a. c #897C72",
"s. c #BD810E",
"d. c #BD8313",
"f. c #BE891A",
"g. c #B5862E",
"h. c #B4882F",
"j. c #AB843A",
"k. c #B88A33",
"l. c #C0830E",
"z. c #C08514",
"x. c #C68719",
"c. c #CB841E",
"v. c #C38A1D",
"b. c #CA8A24",
"n. c #CE8E25",
"m. c #D28A25",
"M. c #D38827",
"N. c #CB9328",
"B. c #CD952B",
"V. c #D29329",
"C. c #CC9935",
"Z. c #D99532",
"A. c #D39B33",
"S. c #D69836",
"D. c #DA9A35",
"F. c #DB9D39",
"G. c #D7A23B",
"H. c #DAA23C",
"J. c #DFAA3D",
"K. c #E0A33F",
"L. c #87815E",
"P. c #91855F",
"I. c #BC9041",
"U. c #848164",
"Y. c #8A8464",
"T. c #8E8966",
"R. c #85826A",
"E. c #8A866A",
"W. c #8C8A6C",
"Q. c #938966",
"!. c #928C6D",
"~. c #95906E",
"^. c #98936F",
"/. c #8A8774",
"(. c #8E8B72",
"). c #938D73",
"_. c #95877A",
"`. c #948C79",
"'. c #959274",
"]. c #9A9474",
"[. c #9E9A77",
"{. c #959279",
"}. c #9A957A",
"|. c #9D997B",
" X c #B4976C",
".X c #A69979",
"XX c #A29C7D",
"oX c #BEA675",
"OX c #C89A4B",
"+X c #CD9E53",
"@X c #D5A444",
"#X c #DDA541",
"$X c #DBA945",
"%X c #D9AA4B",
"&X c #DBAD53",
"*X c #DEB258",
"=X c #E1A643",
"-X c #E1AA47",
";X c #E3AE4C",
":X c #E4B04D",
">X c #E5B452",
",X c #E4B55A",
"<X c #E7B95A",
"1X c #CBAB6B",
"2X c #E6BD65",
"3X c #EABD65",
"4X c #E7BD68",
"5X c #E7C06B",
"6X c #EBC26D",
"7X c #E6C072",
"8X c #EBC572",
"9X c #EFCB7D",
"0X c #F0CC7E",
"qX c #939085",
"wX c #979696",
"eX c #999896",
"rX c #989898",
"tX c #A39D82",
"yX c #A79C87",
"uX c #A9A486",
"iX c #B4AD8B",
"pX c #A2A2A2",
"aX c #AAAAAA",
"sX c #B3B3B3",
"dX c #BBBBBB",
"fX c #EFCD82",
"gX c #F0CE83",
"hX c #C4C4C4",
"jX c gray80",
"kX c #D4D4D4",
"lX c #DBDBDB",
"zX c #E3E3E3",
/* pixels */
"d M f S L M S t.t.D L G R a S L b S G S F M W L G G f M i.y.E.W.Q (.(.M ! V k 1 k K Q K t.p.B Y u.T W R u.3 H u.E.Y y.u.g Y W ! U.L.D B D I E W E.W.R.A Q W W P ",
"= T.W T.!.! i.].].W.[.'.tX4 ~.!.W.[.uX|.|.I uXR.}.`.H K tXXX}.|.p.).}.x 8 < < 7 < < l V R.U.A W U.K u.Q ].= ! XX{.}.}.(.J '.!.{.'.R.J |.E.'.Q |.'.(.(.! W.tX|.uX",
"a A Y.u.U.T u.~.|.!.y.'.p.d ^.|.'.|.|.'.T.J iXiXtXuXP A XXXX'._.P x < < 7 ` 3.8.2.( < < 1 V H u.! E Y.p.p.3 H tXuXuX{.(.J }.|.}./.Q C R.|.U.Q }.{.R.! J W.W.(.tX",
"= W U.!.E.I U R.!.].W u.E.d !.E.[.[.}.'.|.I E.iXyXXXH J uX/.r.2 < < 9 =.7.7.8.8.8.8.7.=.( < < w F u.D ].`.4 W E.E.XX(.R.I {.Q '.(.U.n U E.).(.W.(.U.C d {.}.{.}.",
"r L.E ~.T.! A A S p K b I s W.W.W.'.].uX|.J |.XXiX|.R R :., < 1 ` 3.3.<.` *.2.8.7.8.7.7.7.2.( 1 < 1 x Y W.g c B b b b n c ].E.(.R.R.D C Q T J c c H ! Q K {.}.{.",
"t Y.Y.Y ~.B Y.u.Q H E.~.i.i E.tX).W.).|.yXI XX'.|.P l < 1 1 *.6.3.=.` ` ` *.` ` =.3.8.7.9.8.8.3.=.7 < , k j p.}.'.n '.W.`.I ).C W.(.E C E U K ! A Q T /.i tX{.{.",
"t L.W T.y.J '.U.!.n !.!.|.4 A S v h h B M h B x , < < ( 2.6.=.*.` ` ` ` ` ` ` ` ` ` =.1.7.7.7.7.9.6.1.( , < 0 ;.`.n T /.}.T |.Q R.U.I R.(.T Q p.U.).'.|.c Q uX}.",
"= U.Y.T.U.S T.U.E.n Q Y.`.4 U !.Y.E.I .Xr.z < < 7 *.3.6.=.` *.` ` ` ` ` ` ` ` ` ` ` ` -.` 1.7.7.8.8.8.8.3.=.8 < < l F Q R.T '.'.}.U J U.|.R.R.T |.uX~.W.i Q XX(.",
"3 g g M h g B A H i W '.}.= U.)..X~.n x < < ( ,.6.<.,.` ) ` ` ) ] ` ` ] ` ` ` ` ` ` ` ` ` ` ` *.1.9.7.7.7.8.7.1.( 7 < V W ! (.W.].).J ! U.!.Q c D K h r p d M S ",
"s W E L.W K Y.T.'.n u.'.).u R.W.XXXXr.< 9 3.3.<.` ` ] ] ` *.` ` ` ` ` ` [ } ..+. .} [ ` ` ` ` ` ` ` =.6.7.7.7.7.7.2.7 , r.T XXR.'.W K A T }.U.A W.Q U.T T W ].p.",
"u y.E Y Y T y.W u.B ).W }.= }.'.].r.< < ,.*.` ` ` ` ` [ ` ` ` ` ] ' X.+.@.@.d.v.$.@.+.+.X.' ` ` *.` ` ` =.3.7.7.7.7.2.< 1 h u.T.].W.b g E.W.Y.C T.T W.!.!.T T R.",
"r U U y.W.W W.!.i.i Y.u.'.t W.[.i.1 < ( ` ` ` ` ] ` [ ` ` ` } X.+.+.+.g.@X5X9X9XfX*XC.d.+.+.+.X.} ` ` ` ` ` ` 2.6.9.7.,.< w B K I K s b U.W.J E y.I W.).!.Q W W.",
"g W L Y.Y.S ~.'.u.p I Y.U.4 Y.W.w < ( ` ` ` ` ` ` ` ` } O.@.@.@.N.&X7XgX6X6X9X9X9XgX9X9X4X@Xf.@.+.+.o.} ' ` ` ` ` 8.8.8.` < w A H b B d A L g D n C K U H Y Y i.",
"r g d g d d d t M s d M S 4 M q < 8 ] ` ` ` ` ` X.+.+.@.d.C.*XfX8X3X<X:X:X;X>X<X4X8X9X9X9XfX9XfX2XB.d.+.@.O.X.' ` *.7.8.8.( < j G F h h b B U T Z h s D H G I B ",
"t U Z E Y L.W.B Y.R U.E yXd V , 1 ` ` ` ` ` } +.+.z.C.4X9X8X5X>X:X:X>X:X:X:X:X:X:X:X>X<X5X9XfX9X9X9X9X2X@Xf.@.+.' ` =.8.8.6.9 < V R S b W C A Y.W n U !.!.Q.).^.",
"u L.G U u.Y.).C Q.W G .X.Xh < < ` ` ` ` ] ' @.#.8X9X4X3X:X:X:X:X:X:X#XA.#X:X:X:X:X:XB.A.$X:X,X3X8XfX9X9X9X9X2X$.+.[ ` ,.8.9.6.1 < P T K E U U.T.U.C E W.y.Y.!.`.",
"r E U T.T.Y L.B Y.E R y.Q.1 < ( ] ` ` ` ` O.@.F.<X:X:X:X:X;XG.N.z.+.@.@.z.:X:X:X;X-X+.+.+.+.z.B.H.>X4X9X9X9X9X&X@.o.` ` 3.7.7.2.1 1 M B W u.L.~.Y.d T Q ].U.W p.",
"= L.L U E E ].n R y.~.u.2 < ( ` ) ] ` ] O.@.N.;X:X>XG.N.d.@.@.@.$.N.F.@.z.:X:X:X:XF.+.$.C.v.+.+.+.+.d.v.H.4X9X9XC.@.X.` ` 7.7.8.=.< 2 S E U U y.].p R E T.!.y.Y.",
"r Z D G T.Q.T.b A M K w < ( ) ` ` ` ) } +.z.:X:X>XA.@.@.s.N.%X2X5X4X6X@.z.:X:X:X:XF.+.f.4X6X8X>X@XC.d.+.@.G.5X9X9Xf.+.} ` *.7.7.8.( < k W K U.W.W c y.U Y Q.Y.u.",
"t y.L.L.y.L.U.J !.u.x < 1 ] ` [ ] ` ' @.#.;X:X:XC.@.s.5X5X5X>X>X>X:X<X@.z.:X:X:X:XD.+.d.>X3X6X6X6X5X5X,X@.#.#X8X9X5X#.@.[ ` =.7.7.7.( < x H y.T.!.b u.U Y ~..X`.",
"t G L.y.t.y.L.B U V < 1 ` ` ` ` ` ` @.@.G.:X:XH.s.@.$X>X>X:X:X>X:X:X,X@.z.:X:X:X>XK.@.w.-X:X:X>X<X3X8X6X$X@.$.>X9X9X*X+.+._ ` ,.7.8.3.7 < F y.L.i.d A W Y.Q.Y.(.",
"4 D L.L.R y.Y.A P 1 < ) ` ` ` ` ` O.@.B.:X:X;X#.@.A.:X:X:X:X:X:X:X:X,X@.z.:X:X:X:XF.@.s.-X:X:X:X:X:X>X8X6XC.+.d.,XfXfXC.+.X.` ` 1.7.8.3.7 < N u.u.v U E U L.L.R ",
"= U Q.P.Q.Y y.R w < ( ` ` ` ` [ } @.z.:X:X<Xs.@.N.:X:X:X:X:X:X:X>X>X,X@.l.>X:X>X;XH.@.s.;X:X:X:X>X:X:X>X6X8XN.+.v.3X9X9Xz.@.} ` _ 7.9.8.<.< 1 Y.I u I W E U.L.! ",
"t Y L Y D U.L w < 9 ` ` ` ` ` ' @.#.:X:X:Xv.@.v.:X:X:X:X:X:X>X<X:X:X,X@.z.:X:X:X;XF.@.s.-X:X:X:X>X:X>X:X<X5X4Xf.+.N.8XfX5X#.+.' ` ] 7.8.7._ < w L M R L.M P.U.T ",
"= P.K Y K L z < , ` ` ` ` ` ` O.@.J.>X;XA.+.d.;X:X:X:X:X:X:X>X>X:X>X>X@.z.:X:X:X:XH.+.l.-X:X:X:X:X:X:X:X:X<X5X5X$.+.G.9X9X2X+.O.[ ` =.6.8.7.) < 0 W i.t.Y Y.R u.",
"s L P.D Q.r.< < > ` =.` ` ` o.+.B.>X>XA.@.@.#X:X:X:X:X:X:X:X>X:X:X:X,X@.z.:X:X>X:XD.@.$.;X>X:X:X:X:X:X:X:X:X5X6X,X+.#.:X9X9XG.+.o.` ` =.7.7.8.8 < x L.y.y.Y R R ",
"= r a t c < < > > ` ` ` ] X.+.l.=X:X#X#.@.J.:X;X:X:X:X>X:X>X:X>X:X:X<X@.z.;X>X;X:XH.@.s.;X;X:X:X:X:X:X:X>X:X:X6X5X@X@.@.<X0X9Xg.@.X.` ` <.8.8.3.< < f a a t a a ",
"M !.y.U.R.< < > > [ ` ` ` ..+.m.=X%X#.@.Z.:X:X:X:X:X>X:X:X:X>X:X>X:XOX7 # X       o # e @X;X;X:X:X:X:X:X:X>X:X:X5X8X@X+.s.6X9X*X@.X.` ` ` 2.6.8.< < Y.B L y.u.].",
"g ].U.W.'.< < > , ` ` [ ` O.@.m.=XA.@.z.;X;X>X:X:X:X:X:X:X:X:X:XOX3     X O O O O O .     y OX>X:X:X:X:X:X:X:X:X>X6X8Xf.@.G.9X*X@...` ` ] ` 3.9.< < ).c Y.XXXXtX",
"v (.W.'.|.7 , > > ` ` ` ` o.@.m.=Xn.@.x.:X;X;X;X:X:X:X:X:X:X>Xz     O * * * * * * * * & O     z >X:X:X:X:X>X>X>X:X>X8Xv.@.$X>X*X+.5.wXrXeXi.*.3.< < u.i W..X'.(.",
"p y.U.'.p.< , > > ` ` ` ` o.+.m.=Xn.@.x.:X>X;X>X:X:X:X:X:X>Xy   . & & + + + + & & * * * * * X   y >X:X:X>X>X:X:X:X>X<Xv.@.H.>X%X#.g.aXaXwX_.` 3.< < ].d E.].! ).",
"c Q '.'.! < < > > ` ` ` ` o.+.m.=XV.@.x.:X;X:X:X:X:X:X:X:X6   X + O O O O O O O O O + & * * * o   z >X:X:X:X:X:X:X:X:Xv.@.G.:X%X@.k.zXzXrX_.` 3.< < P u Y U.U.}.",
"g E Q W.! < < > > ` ` ` ` o.+.m.=XV.+.c.>X>X:X:X:X:X:X:Xj.    O O O O O O O O O O O O O + * * * X   j.>X:X;X:X:X:X:X:Xf.@.G.:X$X@.k.kXzXrX_.` 3., < !.E.Y.`.u.U.",
"d K U L.I < < > > ` ` [ ] o.+.m.H.m.+.x.;X:X:X:X:X:X:X:X$   O O O O O O O O O O O O O O O O * * *   O :X>X:X:X<X:X:X:Xf.@.J.:X$X+.h.jXlXrX_.` 3.< < '.!.'.'.].].",
"r U.I A ! < < > > ` ` ` ` ..+.M.F.V.@.x.;X;X:X:X:X:X>X8.    O O O O O O O O O O O O O + O O O & * O   j.>X:X:X>X:X:X:Xf.@.G.:X$X@.h.jXlXrX_._ 2.< < W.'.W.U.p.).",
"= n D T R.< < > > ` ` ` ` O.+.m.F.m.@.x.-X;X:X:X:X:X:Xy   X O O O O O O O O O O O O O O O O O + * &   j -X-X-X-X-X-X;Xf.@.G.>X$X+.h.kXzXrX_.` 3.< < '.W.Y.uX].p.",
"4 U y.^.R.< < > > ) ` ` ` ..+.m.F.n.@.x.D.Z.Z.D.D.Z.Z.#   X O O O O O O O O O O O O O O O O O O & *   # Z.D.Z.Z.Z.D.D.d.@.G.:X$X@.h.jXlXrX_.*.3.< < T ! v K L K ",
"r I ].Y.(.< < > > _ ` ` ] ..+.M.F.V.@.#.$.$.$.$.$.$.l.X   X O O O O O O O O O O O O O O O O O O O * X @ l.$.s.s.s.s.s.#.@.G.:X$X@.h.jXlXrX_.` 3.< < Y.!.B !.E./.",
"p Q U.W Q < < > > ` ` ` ` o.+.b.H.m.@.@.+.+.+.+.+.+.+..   X O O O O + O O O O O O O O O O O O O O & . @ $.$.$.#.$.$.#.s.d.%X:X%X+.h.jXzXrX_.` 3.< < U.).I XX!.tX",
"i U Z b M < < > > ` ` ` ` o.+.m.F.D.Z.F.Z.F.Z.Z.Z.Z.Z.#   X X O O O O O O O O O O O O O O O O O O &   : D.Z.Z.Z.Z.Z.Z.F.:X:X>X<X@.k.jXkXrX_.` 3.< < W H n B K A ",
"p b h b f < < > > ( [ ` [ O.+.M.F.:X:X>X:X>X:X:X&X&X>Xq   X X X O O O O O O O O O O O O O O O + O O   0 N.N.N.N.N.N.N.N.V.:X:X5X@.k.jXlXrX_.` 3.< < R.{.i.E.u.i.",
"h E E E A < < > > ` ` ` ` ..+.m.F.>X:X>X:X>X:X1X1XuX1Xi.    X X X + O O O O O O O O O O O O O O O .   ^ +.+.+.+.@.@.+.@.@.H.:X5X+.h.jXlXrX_.` 3.< < W.E.Q /.XXXX",
"s U U L.A < < > > ` ` ` ` ..+.m.F.:X:X;X>XoXyXrXrXaXrXwX&     X X X O O O O O O O + O O O O O O O   3 @X&X&X*X:X&X3X6Xv.@.H.:X3X@.g.jXlXrX_.` 2.< < ).'.XX'.(.E.",
"b W.E U J , < > > ` ` ` _ ..+.n.H.:X;X&XyXrXaXjXzXzXzXlXpX    X X X X O O O O O O O O O O O O O   . k.3X3X6X3X5X3X6X3Xv.@.G.:X3X@.g.dXhXrX_._ 3.< < E.! u.Q ! B ",
"s U U U A < < > > ` ` ` ` ..+.m.F.>X>XyXrXhXlXlXkXlXlXzXlXqX    X X X O O O O O O O O O O O O     6.=X:X:X:X>X>X:X>X:Xf.+.H.:X3X+.g.rXpXrX_.` 1.< < Q W.R.! W.E.",
"b T Z Y J , < > > ` ` ` ` o.+.m.F.;XoXeXdXkXkXkXkXkXkXkXkXkXqX    X X O O O O O O O O O O O     [ G.:X:X>X:X>X:X:X:X:Xb.+.G.:X6X+.5.rXrXrXi.` 3.< < E.).tXW.T R ",
"h T.L Y I < < > > ` ` ` ` ..+.m.H.-XwXpXjXkXkXkXkXkXkXkXlXkXkXpXO   X O O O O O O O O O .   @ 5.F.:X:X:X>X:X:X:X:X:X;Xf.@.G.:X4X+. .w 2 2 w _ 3.< < I I T Q R.T ",
"p E S K A < < > > ` ` ` ` ..+.b.F.+XwXaXkXkXkXkXkXkXkXkXlXkXkXlX~   X O O O O O O O O O X   5.F.;X:X>X:X:X:X:X:X:X:X>Xv.@.J.>X5X+.o.` ` ] ` _ 3.< < (.}.{.(.}.p.",
"d M g b n < < > > _ ` _ ` o.@.c.F.OXeXsXjXkXlXkXkXkXkXkXkXkXkXlX-   O O O O O O O O O O O   5 >X:X:X:X:X:X:X:X:X:X:X:Xv.@.J.:X5X+.O.` ` ` ` ` 3.< < Q R.R./.'.{.",
"S K b A T < < > > ` ` ` ` o.@.c.F.OXrXaXdXkXkXkXkXkXlXkXkXlXkXsX  X O O O O O O O O O O O X   @X:X:X:X:X:X:X:X:X:X:X&Xb.@.G.:X2X+...` ` ` ` ] 7.< < W./.iX|.!.uX",
"M D E A K < < > > _ ` ` =.o.@.c.H.F.rXpXdXhXlXkXkXkXkXkXkXkXlXm   X O O O O O O O O O O * +   4.:X:X:X:X:X:X:X:X>X:X:Xf.@.G.:X4X+...` ` ` ` ` 2.< < (.uXXXtX`.uX",
"f U y.y.c < < > > ) ` ` ` o.@.c.K.Z.yXrXsXdXhXjXlXkXkXkXkXkXkX+   O O O O O + O O O O O & *   $ :X:X:X:X:X:X>X;X:X:X>Xb.@.G.:X5X+.o.] ` ` ` ` 3.< < R.}.|.tX'.uX",
"f U Z L.b < < > > ` ` ` ` ..@.c.F.#XS.wXpXsXdXdXhXjXkXkXkXkXpX  X O O O O O O O O O O O O * O   OX:X>X:X:X:X:X:X;X>X>Xv.@.G.>X6X@.o.` ` ` ` ` 2.< < !.Q W.).uXtX",
"r h p g h < , > > [ ` ` ` ..+.c.F.;XS.OXwXrXaXdXdXdXdXdXdXaX-   O O O O O O O O O O O O O * &   j :X>X>X>X:X:X;X;X;X:Xv.@.G.;X6X@.o.` ` ` ` ` 1.< < r r % t h f ",
"i W U.T.T.< < > > ` ` ` ` ..@.c.F.>X;XZ.OX.XrXrXpXpXaXpXrXwXX X O O O O O O O O O O O O O & * X @ C.H.F.F.F.F.J.F.F.F.z.+.G.:X5X+.o.` ` ` [ ` 1.9 < R.{.(.R.}.(.",
"b U.W.U.E < < > > -.` _ ` ..@.c.F.>X>X;XF.Z.OX XyX.XyX.X X;.  X O O O O O O O O O O O O O O * +   e V.m.m.m.m.V.V.m.V.x.+.G.:X4X+...` ` ` ` ` <.9 < U.uX}.(.! {.",
"c E T.y.E.< < > > ` ` ` `  .+.c.F.:X:X:X:X-XH.D.Z.D.D.F.;X$   O O O + O O O O O O O O O O O & *   # @.+.+.+.+.@.+.+.@.@.@.H.:X4X@.o.] ` ` ] ` <.9 , /.|.tXR.R.p.",
"c U.T Q U.< < > > ` ` ` `  .+.c.F.:X:X:X:X:X:X:X;X:X:X>XI.    O O O O O O O O O O O O O O O O * O   5.n.n.V.n.n.N.m.V.m.F.:X;X5X@.5.wXwXwXqX` ,.9 7 tXtX}.U.Q qX",
"r v S b D < < > > ` ` ` ` ..@.c.F.:X:X:X:X:X:X:X>X:X:X:Xj   O O O O O O O O O O O O O O O O O * +   z J.H.#X#X#X-X-X-X-X;X>X:X3X@.g.aXaXwXwX` 1.9 < (.{.}.'.U.(.",
"i R U.U U.< < > > ` ` ` ` o.@.c.F.#Xv.z.z.z.z.z.d.f.s.f.o   O O O O O O O O O O O O O O O O O & *   o z.#.+.+.@.+.+.+.+.@.H.;X5X@.k.lXzXwXwX] <.8 7 ! c C K C n ",
"v '.U ~.U.< < > > ` ` ` ` ..+.c.F.S.+.+.@.@.@.@.#.v.v._   X O O O O O O O O O O O O O O O O O + * +   e v.v.v.v.v.v.v.d.@.G.:X3X+.k.kXzXrXrX_ <.9 < tXn '.U.(.uX",
"p !.W W U.l < > > ` ` ` ` ..+.c.F.n.+.z.6X8X6X6X6X8X8Xy   X X O X X O X O X X X X O O X X X X X + +   y 8X5X8X5X5X8X5XC.@.J.:X3X+.g.hXlXrXrX[ 1.9 7 tXn T.! U.(.",
"g '.Y.U.I w < > > *.` ` ] ..+.c.F.m.+.z.>X<X<X5X<X<X*X    X X O X X X X X O X X X X X X X X X X O + X   &X,X,X>X>X,X<XA.+.G.:X3X@.g.hXkXwXrX` <.9 < qXc '.R.R.Q ",
"s Y.y.W Q w , > > ` ` ` ] o.+.c.H.n.+.$.-X:X:X>X:X:Xj.                            .                     j.:X:X:X:X:X:XB.+.G.:X5X@.k.hXlXrXwX_ 1.9 < p.n S H n M ",
"p R U.U.y.l < > > ` ` ` ` o.@.c.F.V.+.$.-X:X:X:X:X:XF.% # # : q q q q ; ; q w q q 0 ; ; 2 q q q q q q q @X:X:X:X>X:X:XC.+.G.:X3X@.k.jXkXeXeX] <.( < R.n U.U.Y.yX",
"d y.R D Q.q 1 > > ` *.` ` X.@.c.F.m.+.$.-X:X:X:X:X:X-XZ.Z.Z.S.S.Z.Z.F./ / D.Z.Z.Z.e./ / M.Z.Z.D.Z.Z.Z.Z.;X,X:X:X:X:X:XB.+.G.>X3X@.k.hXlXeXeX` 1.( < _.b E.E.u.tX",
"4 b d v i l < > > ` ` ` ` o.+.m.F.n.+.$.-X:X:X:X:X:X<X:X;X;X;X;X:X>X,X@.@.;X;X;X;XF.@.@.K.;X>X:X:X:X>X:X:X:X:X:X;X:X:XC.+.H.>X<X@.k.hXkXeXeX] <.( < p.u A S b M ",
"p T Q Q.).w < > > ` *.] ` o.+.e.F.n.+.$.;X>X:X:X:X:X:X:X>X:X:X:X:X:X>Xv.@.;X>X;X;XF.+.@.=X>X>X:X:X>X>X:X:X:X:X:X:X:X:XB.@.G.:X3X@.g.hXlXrXeX*.=.( < ! W ! u.W.).",
"p U E Y.Q.l < > > *.` ` ` o.@.c.F.Z.@.$.$X:X:X:X:X:X:X>X:X:X:X:X:X>X>Xv.@.>X:X:X>XF.+.+.=X;X:X>X:X:X:X:X:X:X:X:X:X:X:XC.+.H.:X3X+.g.hXlXrXwX*.1.( < XX].T.iX).|.",
"h U.U y.Y.w < > > ] ` ) ` o.@.c.F.n.@.s.-X:X:X:X:X:X:X:X;X:X:X:X:X:X>Xb.+.:X:X:X;X=X@.@.=X>X;X:X:X:X:X:X:X:X:X:X>X:X:XB.+.J.:X3X+.g.hXkXrXeX] 2.9 < R.~.U.R.).`.",
"A E Y.U K l < > > ` ` ` ` o.@.c.F.n.+.s.-X:X:X:X:X:X:X;X:X:X:X:X:X;X>Xv.@.;X:X:X;XF.#.@.K.;X;X:X:X:X:X>X:X:X:X:X:X:X:XA.+.G.:X<X+.g.hXkXrXeX` <.9 < Q U..X~.!.W.",
"i L I W W l < > > ] ` ` ` ..+.x.F.n.+.w.-X>X:X:X;X:X:X:X>X:X:X;X;X>X<Xv.@.;X>X:X;X=X#.@.F.>X:X:X:X:X:X:X:X:X:X>X;X:X:XB.+.H.:X3X@.g.dXhXeXeX` =.9 < Q !.U.~.Q./.",
"f Y E Y W l < > > ` ` ` ` ..+.c.F.n.+.$.=X:X;X;X;X:X;X<X;X:X;X:X:X:X>Xv.@.;X:X:X;X=Xs.+.F.-X-X-X$X-X$X-X-X-X-X$X>X-X-XB.+.F.>X4X+.5.pXpXrXeX` ,.( < ! R y.W.U.W.",
"g E U E E.l < , > *.` ` ` o.+.c.F.m.+.$.Z.Z.Z.Z.Z.Z.F.Z.D.Z.Z.Z.Z.V.F.z.@.;X:X:X;XH.$.@.Z.Z.Z.D.Z.Z.Z.D.Z.F.D.Z.Z.Z.Z.b.+.J.:X3X+.5.eXeXeXa.` 1.9 < n b v M K B ",
"4 y.D D S w < > > w 9 ) `  .+.x.F.V.+.#.l.$.$.$.s.$.$.$.s.s.w.s.w.s.$.#.@.:X:X>X:X=Xs.+.$.$.$.$.$.$.$.$.$.$.s.w.w.$.$.#.+.G.;X3X+.+.> > > > w ` ( < R..X).W !.p.",
"4 h h D t.q < > > > > > > / +.c.Z.M.+.+.+.+.+.+.@.+.+.+.+.@.@.@.@.+.+.+.w.J.J.#X=XF.w.@.+.+.+.+.+.#.#.#.@.+.@.@.@.#.#.@.#.Z.F.;X+.@.> > > > > w < < )..XQ.Y i.E.",
"d E D W [.e < > > > > > > ^ @.c.M.q.%.%.%.%.%.0.w.w.0.0.0.0.0.%.0.%.0.0.M.M.m.m.M.w.q.q.w.0.%.%.0.%.0.%.q.%.0.q.q.%.0.0.w.m.m.D.+.+., > > > > 0 7 < u.R.L U R ).",
"h D T.Q.Y.l < > > > > > , ^ +.c.M.m.M.M.M.M.M.m.V.m.m.m.m.M.m.M.M.M.m.m.M.m.m.m.m.m.m.m.m.b.m.m.M.M.m.m.V.m.m.m.m.n.m.m.m.m.c.D.+.+.> > > > > 7 1 < !.Q.I W L ).",
"i U Y Y y.l < 7 < , < < < / +.@.@.@.+.+.+.+.+.+.@.@.+.+.+.+.+.+.+.+.+.+.+.+.@.@.+.+.@.@.@.@.@.@.+.+.+.+.@.@.@.@.@.@.+.+.@.@.@.@.+.+.< , < 7 < < < < Y !.G T.y.].",
"g D D G E V w l l l k k q ^ { | | { { { { X.&.{ &.&.{ { &.| &.&.| | >.;.;.;.z 4.;.4.4.>.>.>.:.:.:.;.>.4.4.>.>.4.:.;.4.4.>.;.;.;.>.;.0 : : : 6 0 0 y B S Z D Z R "
};
