/* XPM */
static char *_e82c0b055624a71d25852cc313a1fd2lz0cij1KyWpq2NOw[] = {
/* columns rows colors chars-per-pixel */
"80 80 30 1 ",
"  c gray5",
". c gray8",
"X c #1B1B1B",
"o c #1E1E1E",
"O c #202020",
"+ c gray15",
"@ c gray16",
"# c #2F2F2F",
"$ c #323232",
"% c #353535",
"& c gray23",
"* c #3E3E3E",
"= c gray25",
"- c #464646",
"; c #494949",
": c #4C4C4C",
"> c #515151",
", c gray33",
"< c #5A5A5A",
"1 c #5F5F5F",
"2 c #606060",
"3 c #676767",
"4 c gray42",
"5 c #6C6C6C",
"6 c #717171",
"7 c gray46",
"8 c #7B7B7B",
"9 c gray49",
"0 c gray51",
"q c #848484",
/* pixels */
";2111111111111111111111=*=++,>><2111111111111111111111111111>*&.;111111111111111",
"19898898898998898998996>>,$$555579889889899889899889899889993>:X1798898998898998",
"18888878888888888888896,>>$$544478888888888888888888888888883>;o1688888888888888",
"19889768888888888888886>>>$#544488888888888888888888888888892>;X1688888888888888",
"18888888888888888888896>>,%#544478888888888888888888888888893>:o1688888888888888",
"28888888888898898988896,>>$#544478888888888888888888888888882>;X1788888888888888",
"30909090909090099098896,>,%#544479888888888888888888888888893>:X1688888888888888",
"20090909090900900909886>>>$$544479888888888888888888888888992>;X1688888888888888",
"20900900900909000909996,>>$#544478888888888778888888888888892>;o1698888888888888",
"20000099909009780990986,>>%#544479888888888888888888888888883>;X1688888888898888",
"20099090009007149009996>>>$$544478888888888888888888888888893>:X1799999999998888",
"20900900900900900090096,>>$$544478888899999999999990998888882>;X1700090009909888",
"30909009099090090090097>>>%$544479889009900900900090909888893>:o1790900909009998",
"20090990900909909009007,>,$#544479990909909009099009090988883:;X1709009090090988",
"20090000000000000990907,>>$$544478990900009099009009000098893>;o1709909009909098",
"20909099099099090900907,>>$#544489009009900900900090909909892>;X1700900900900098",
"30900900009009009009007>>>%$444480900900900909909909090090983>:o1799099099090090",
"20099009900990900909907,>>%#444489000099090090090000900990093:;X1700000000009009",
"20000990099000990900007,>>$#544470099090090900000990900900904>;o1790900909900990",
"20900090090009009009907>>>%#544489900900900909909009090090003>;X1700099090090900",
"3q000000000q0q000q000q8>>>%$5555800000000q00000q00q000000q003>:o18000q0000000000",
"&:::::::::::::::::::::-$#$oo===->:::::::::::::::>:::>:::::::=$# &:;::::::::::>::",
"#*******%++.o%***&&&&&&&&&&&**&*=&*&&&&&&&**&&$++ @%*&&&*&&&*&&&&*&&*&&&**&&*%@@",
"3097000q6>>#*5699999999999999999999999999999981>:o<569999999899999999999999992>>",
"209809005>>#&568898888888888888888888888888888<>:o<558888888888888888888888882>>",
"209009905>>@&5788578888888888888888888888888881>:X<568888888888888888888888881>>",
"290990095>>#&568846988888888888888888888888888<>:o<569888888888888888888888882>>",
"300000905>>@&578888888888888888988888888888888<>:X<558888888888888888888888882>>",
"200909005>,#&478888888888888886688888888888888<>:o<468888888888888888988888882>>",
"200900905>>@&5688888888888888886888888888888881>:o<469888888888889887789888882:>",
"200090005>>@&568888888888888888888888888888888<>:o<469909090909099099999888881>>",
"200909905>>#&4788888888888888888888888888888871>:X<469090909090900909000998892>>",
"290909904>>#&568889999099999999999999909998888<>:X<460990990990990990990999882>>",
"300090005>>@&5788809009900090009000009909988881>:o<569000000000000000000009882:>",
"200900905>>#&578899009909000900090099009009888<>:o<460099009099009909009900991>>",
"200909095>>@&568990090009090909009900900909888<>:X<460900990900990090990090002>>",
"200000905>>#&5799009900900909099900909009099881>:o<469900090009009000900090093:>",
"200990005>>@&569099009909009000000909009000098<>:X<460099900099009900099909091>>",
"209009905>>#&5600000000090090990909009900990081::o<469000909900990099090009902>>",
"209009005>>@&5799909909900909009900900909009091>:o<460900090090000900900090002>>",
"300900905>>@&5700990990900900900009009009909901::X<569909009009009009009009002>>",
"299009005>>#&570000000009009909090099009000009<>:X<560090909900990099090990002>>",
"309090905>>@&5799009099009900099900990090990901::o<560000900900990090090090902>>",
"200900905>>#&5700990900909000900009009009009091>:o<569909009009009009009009002:>",
"200099005>>@*5790900009090099009909009090000901::o<460990990990990999009900902>>",
"209900905>>#&5700099099009900090900990090990091>:o<469009009000009000090099002>>",
"300000005>,@&5700900000000000000000000000000091>:o<460000000000000000000000002>>",
",66656652;-+$145666656656656656565666656565656,--.:14566566656236656656566566,--",
"o+++++++#OOoo+@++++++++++oo.o@#+++++++++++++++#OOXOO@++++++@Oo..+OOO+++++++++OOO",
"<66666666666666666666666<;;X:4576666666666666666677666666675>:+%3233666666666667",
"1998988898989899988998982>:o,5789898989898989898899889989996,>@*5546888998898998",
"1988888898888889888888881>:o,5788888888888888888888888895296>>@*5446888888888888",
"1888888888888888888888881:>o>5888888888888888888888888887696,>@*5555888888888888",
"1888888888888888888888881>:o,5788888888888888888888888888996,>@*5545788888888888",
"1888888888888888888888881>>o,5888888888888888888888888888896>>@*5555888888888888",
"1888888888888778888888881::o,5798888888888888888888888888896,>@*5455888888888888",
"1888888888888888888888882::o,5788888888888888888888888888896,>@*5555998888888888",
"1888888888888888888888881>>o,5788888888888888888888888888896,>@*5545888888888888",
"1888888888888888888888881::o,5888888888888888888888888888896>>@*5555888888888888",
"1888888888888888888888881>>o,5788888888888888888888888888886,>@*5556888888888888",
"1888888888888888888888881>>o,5888888888888888888888888888896,>@*5555888888888888",
"1888888888888888888888881::o,5788888888888888888888888888897,>@*5545888888888888",
"3988888889898889889898992:>o,5899009999009999009999009999097,>@*5545888888888888",
"2009890009090009009090902>:o>5800990000990000990000990000907,>@*5445888888888888",
"2000900909009009009009001>>o>5800090090090090090090090099007>>@*5445888898888888",
"2090099090099090099090092::o,5899009909009909009909009900007,>@*5446909990909990",
"3099000090090090900990092>>o,5800990009900000990009900000907,>@*5546900009900099",
"2000990909009009090009002>:o,5890900090099090900090099099007,>@*5545090990090900",
"2909009090990090090090092::o>5909009099009909009900900909007,>@&5446909009000900",
"3000900900009900909009092>>o,5890990900900009090090090090907>>@*5446099009900099",
"2009900909900909009909002>:o,5890000000090090090090990090008,>@*5545900990099090",
"2009009090090090090090092>>o>5809099099009909009900900909097,>@*5555090000900900",
"2000090090090090099090092>>o>5800900900990090090009009009907,>@*5555909009009009",
"2009099009909009900900901>:X,5890990090900909900099090090007,>@*5556090990090990",
"2090900900000990000090902:>o,5809009090090900909900990090907,>@&5445900909900000",
"2090009099090900099090092>>o,5890090900990090090090009000007>>@*5456090000909099",
"3009009009909009990909002>:o>5900090900900900090090090099007,>@*5545090990090990",
"2990090900009090000009902>:o,5899009090090099009909009090907,>@*5546900909090000",
"3090990090090090099090092>:+,5890990090990090990009909000907,>@*5556090009009009",
"2009009009909009900900901>>*<5800900900900900900090090099007,>@*5555900990090990"
};
