/* XPM */
static char *_4eaabcc26b1462e89112d89d9b4436bkMaTaVMPdRFgW6UT[] = {
/* columns rows colors chars-per-pixel */
"80 80 212 2 ",
"   c #000000",
".  c #0C0B08",
"X  c #110D05",
"o  c #13120D",
"O  c #1A1408",
"+  c #131312",
"@  c #1A1916",
"#  c #1C1B15",
"$  c #231B03",
"%  c #21190E",
"&  c #251E14",
"*  c #332806",
"=  c #3B2D04",
"-  c #312708",
";  c #30260B",
":  c #24231C",
">  c #2B251A",
",  c #2D251A",
"<  c #332B1A",
"1  c #201F20",
"2  c #252425",
"3  c #2B2A22",
"4  c #2A2929",
"5  c #342B23",
"6  c #333124",
"7  c #3B3525",
"8  c #3A3729",
"9  c #3D3B2B",
"0  c #302F30",
"q  c #223132",
"w  c #363132",
"e  c #3D3C31",
"r  c #3B3A3B",
"t  c #403002",
"y  c #493909",
"u  c #493C14",
"i  c #43331D",
"p  c #423B26",
"a  c #493C27",
"s  c #433D2B",
"d  c #443D32",
"f  c #56440E",
"g  c #624B06",
"h  c #6D540B",
"j  c #755907",
"k  c #624E11",
"l  c #7D6212",
"z  c #45412D",
"x  c #4A442C",
"c  c #54442C",
"v  c #454333",
"b  c #4A4532",
"n  c #4D4935",
"m  c #48463B",
"M  c #4D4B3A",
"N  c #534936",
"B  c #534C35",
"V  c #5D4C33",
"C  c #524D3B",
"Z  c #55513C",
"A  c #5B543C",
"S  c #59563C",
"D  c #644C2B",
"F  c #725530",
"G  c #765A35",
"H  c #403E40",
"J  c #32464C",
"K  c #3C5964",
"L  c #474647",
"P  c #4F4C43",
"I  c gray30",
"U  c #534E41",
"Y  c #565342",
"T  c #5A5543",
"R  c #5D5A44",
"E  c #5B5748",
"W  c #5E5B49",
"Q  c #675643",
"!  c #625C45",
"~  c #625D4A",
"^  c #75514D",
"/  c #635E51",
"(  c #5E614C",
")  c #646146",
"_  c #65624B",
"`  c #696348",
"'  c #6A644C",
"]  c #6C6A4D",
"[  c #7A6447",
"{  c #716D4F",
"}  c #656252",
"|  c #6A6652",
" . c #6D6B53",
".. c #6A6758",
"X. c #6E6C59",
"o. c #726D54",
"O. c #776D54",
"+. c #726D5A",
"@. c #727154",
"#. c #747255",
"$. c #7A7456",
"%. c #7C7957",
"&. c #75735B",
"*. c #7A755B",
"=. c #7D7A5C",
"-. c #436365",
";. c #50717E",
":. c #7B7561",
">. c #787562",
",. c #7D7B62",
"<. c #806104",
"1. c #8F6D04",
"2. c #91700E",
"3. c #9C7A15",
"4. c #815F36",
"5. c #856539",
"6. c #A6783F",
"7. c #8E704B",
"8. c #8F7656",
"9. c #84795D",
"0. c #827C5D",
"q. c #977D5E",
"w. c #AC7F48",
"e. c #806769",
"r. c #827D63",
"t. c #887F65",
"y. c #837E69",
"u. c #7F8062",
"i. c #B2880B",
"p. c #BF9105",
"a. c #AB8619",
"s. c #B7901C",
"d. c #BA921B",
"f. c #CF9D06",
"g. c #DEA908",
"h. c #CEA11C",
"j. c #D6A719",
"k. c #EFB507",
"l. c #EBB40E",
"z. c #F0B70C",
"x. c #F4BA0C",
"c. c #F9BD0A",
"v. c #E2AE14",
"b. c #C49B21",
"n. c #FFC107",
"m. c #85815E",
"M. c #8A835E",
"N. c #9D815D",
"B. c #AF844F",
"V. c #A88459",
"C. c #858264",
"Z. c #8A8565",
"A. c #8D8966",
"S. c #85846A",
"D. c #8A856A",
"F. c #8D8A6C",
"G. c #918966",
"H. c #948A6B",
"J. c #928C6D",
"K. c #95916D",
"L. c #9A926D",
"P. c #898671",
"I. c #8D8B71",
"U. c #928E72",
"Y. c #968F74",
"T. c #959274",
"R. c #9A9475",
"E. c #9D9874",
"W. c #969379",
"Q. c #9B967A",
"!. c #9D9A7B",
"~. c #A88768",
"^. c #BD9564",
"/. c #BD996E",
"(. c #A39A78",
"). c #A29C7C",
"_. c #BF9D73",
"`. c #A5A17E",
"'. c #C19F76",
"]. c #C6A378",
"[. c #C9A87F",
"{. c #639397",
"}. c #7A9C9E",
"|. c #6593A6",
" X c #6996A1",
".X c #77AFC7",
"XX c #7BB4C8",
"oX c #7DB8C8",
"OX c #9F9A83",
"+X c #A49D81",
"@X c #A5A182",
"#X c #ABA484",
"$X c #ACA788",
"%X c #B2AB8B",
"&X c #B3AC90",
"*X c #8BA2A4",
"=X c #ED9B98",
"-X c #D4A98E",
";X c #EEB4AD",
":X c #85B9CA",
">X c #84C5C9",
",X c #8BC4C9",
"<X c #96C6CF",
"1X c #97CBCF",
"2X c #9BCAD1",
"3X c #A1CED1",
"4X c #ABCED6",
"5X c #A6D2D4",
"6X c #B3D6D9",
"7X c #BCD8DB",
"8X c #FBC0C4",
"9X c #FFCDD2",
/* pixels */
"B ` S ] O._ ` 8.0._ | #.0.C { O.) { #.o.$.A $.O.] $.N ' %.t.J.S.*.T.Q.W y._ T b v T S Z } r.T =.=.*.&.0.*.a ,.*.r.+.,.r.Z &.#.r.C.J.C o.` &.#.u.F.F.I.W ,.*.9.` ",
"8 Z.%.D.U.>.r.R.T.A.T.T.).s T.J.F.!.#X!.)./ ).U.+XY.~ ,.@X@XQ.Y.,.W.@X} F.              M Q.Z C.C. .r.,.U.< I.+XR.!.U.+X} !.U.).F.P.~ !.D.T.S.+XT.W.I.+.U.OX!.D.",
"b _ C.r.r.+.0.T.Q.J.C.R.r.T E.).T.`.R.D.F.} $X&XQ.+X' O.Q.W.U.S.I.T.Q.3                     v %.X.,.A.r.>.p >.+X#X$XI.D.+.Q.Q.T.S.,.W I.I.S.C.+XW.S.,.X.D.D.W.Y.",
"p r.C.L.C.+.%.Z.H.E.r.0.H.S F.,.).R.Q.W.F.~ F.&X+X+X~ &.&XS.!.F.W.!.I.2                     d ,.T.,.*.(.D.7 F.F.D.).D.I.>.I.,.!.I.I.m ,.F.F.I.F.I.,.Y R !.Q.I.r.",
"z m.$.K.Z.&.| | +.R X._ :.C F.D.U.T.Q.).Q.~ W.R.$X+X' y.+Xy.!.U.Q.W.R.@                     , v Z.D.=.C.,.x  . .S X...&./ &X&.Y.u.T.Z  .X.| X.( E X.>.X.,.@XT.S.",
"z Z.Z.0.Z...D.Z.r.&.Z.K.y.N C.+XT.F.T.R.).~ !.K.#XP./ ,.D.y.*.} T C v .                         ] T ' #.C.9 S.).I.' S.U.y.U.,.( u.I.~ +.&.#.X.>.#.,.>.X.W @XF.=.",
"x 0.0.Z.Z.X.T.C.t.~ A.T.@Xb | ' W T S ' o.T } +.+.~ N +X&XD.U.P                                       # W < F.!.OX} *.u.y.C.!.>.u.I.W F.u.u.&...!.F.Q.D._ U.Q.,.",
"9 C.Z.H.m. .Z.r.D.} ,.I.Y.b 0.T.F.U.' E.#X).R.R.).+Xv U.I.D.!.M                                           o T.I.OX&.>.,.,.=.F.W.T.*.Y S.T.I.S...).+XQ.,.Y S.T.&.",
"z M b Z R Z } ' O.C  .(.Q.s r.T.R.J.~ R.U.#X!.+X+X+X                                                      o =.K.W. .u.&.I.| D.J.F.T.C U.S.T.u.Y } _ Z b C ~ ~ ! ",
"x =.$.m.%.X.%.A.!./ r.T.I.b S.D.E.#XY S.U.E.`.@X: <                                                         @ 3 : _ ,.X.OX..F.J.I.I.B >.,.K.&.#.F.,.*.&.#.#.).$.",
"x %.=.$.%.*.r.C.r...U.*.W.z F.R.J.).X.F.S.J.T Y                                                                   6 m _ ,.( F.F.R.OX7 ] S.T.=.X.C.&.Z.T.U._ =.&.",
"v =.#.=.Z.,.F.H.F.N G.r.Q.b F.R.T.(./ F.D.&.@                                                                         E | &.W ,.~ ' p _ C.K.} #.#.=.R.Z.F.*.=.O.",
"Z 0.] Z.C.%.Z.T.D.n #.r.C.v 0.F.E.I.T C.T             . ; & , , , .                                 , , ; O           Y M +.R ( ) &.p R )  .M R R  .#.} o.$.O.' ",
"b S Z T C A A s ! S S ' ` n ] o.] _ ~ T 5             & 6.6.^.^.^.,                                 ^.^.].V           9 T #.R #.O.r.s  ._ ] =.=._ T ' %.{ O.] Q ",
"x #._ =.#.M.U.W r.=.C.$.+XS D.$.J.K.W.K.P           6.w.^.^.^.^.^.^.^.^.^.^.7.          V ^.^.^.^.^.^.^.^.^.^.V           A.) F.=.F.z =.$...*.D. .Y D.K.J.T.H.O.",
"n =.$.$.r.9.D.~ G.0.#.T.T.S T.T.J.=.*.).P           6.w.^.^.^.^.^.'.'.^.'./.^.8.8.8.8.8.~.'.'.].].].].].^.^.^.V           A.u.F.,.C.Y D.#.@.A.Z.C.Y C.C.&.A.T.O.",
"p =.#.Z.A.0.C.~ C.C.$.A.U.n =.#.E.r.( n 2           6.w.'.^.'.^.^./._._.'.'./.'.'././.'.'.'.[.[.-X[.[.].^.^.^.V           C.m.0.Z.D.C 9.*.C.m.J.C.P #.F.(.*.A.] ",
"7 =.] { %.{ !.Y =.A.R.Z.H.b ! W $.*.6           & $ 4.4.7.5.7.7.7.8.8.8.8./.'.'./.'.'.'.~.8.q.q.8.N.q.q.7.V.^.G , .       =.C.,.E.0.W ] *. .=.A.F.Z m.0.H.G.0.O.",
"x ) #.{ Z.H.t._ _ _ ' #.o.x 0.r.X.>.9           4.4.      . % X           8.N.'.'./.~.8.a                 a 7.7.7.:       _ _ =.Z.Z.T %.&.] (.0.F.z =._ 9.R.9.*.",
"x M.0.0.Z.G.C.} 0.%.G.J.Y.m ] r.| ' 8                     % 5.i             , '.'.'.S                                       # %.o.r.N #.C.o.F.H.Y.W m. .r.L.L.&.",
"x { 0.m.$.0.G.! $.0.#.F.R.T #.=. .S.9                 % 5.5.5.5.5.5.5.5.5.5.D       i 5.5.5.5.5.5.5.5.D                     : #.r.J.s | m.#.%.0.&.! ' %.=.G.C.] ",
"z ` M.M.0.9.0.+.{ 0.C.} R.C A.o.) %.6                 % 5.F % % % % O F 5.5.D       i 5.c % % % % % 5.G D <                 # { ` | 7 o.$.#.0.0. .! %.#.&.m.9.O.",
"7 #.K.G.Z.{ 0.W 0.M.%.X.F.p _ X.=.C.6                 X 7 i i %   , i G 5.5.D       i 5.D i X   i i 5.G i %               8 9 0.C.(.z ' #.{ 9.G.E T &.%.0.0.m.] ",
"B 0.] { ` Z.#.+.0.0.M.C.S.s #.#.L.r.8               & O   $ 5.c % D 5.F D D a       , D G 5.< % 5.5.5.D   O 5 @           C.o.{ C.*.z { $.0.0.%.W r.] C.{ 9.$. .",
"9 M.o.$.%.$.%.R.O.r.A.G.Y.d ) &.J.r.v               G D   O D D D D D O   % , < 3 < @   < D D D D D D i   b q.v           { %._ { G.C o.#. .0.o.s $.9.*.{ H.o.+.",
"B { M.{ A.M.A.H.B #.%.Z.R.< ) &.r.' 9                                     w.B.[.].-XS                                     C.o.] { 0.b A ' %.o.*.8 O.A.A.$.%.$.~ ",
"9 x z x x z a B x 7 p c S 7 7 7 z B >               ,X,X,X,X,X,X,Xq                                       -.>X-.          Z n 7 p T c 7 7 B x A 7 n S x p a V N ",
"/ (.Z.D.U.F.D.Q.J.>.` V *.T F.!.S.: +               ,X,X,X,X,X,X,X*X}.}.}.}.}.}.*X*X*X*X*X}.}.}.{.{.{.{.{..X>XK           } 0.%.O.r.C &.=.0.F.C.C.F.y.! Z.C.R.9.",
"Z R.=.D.E.R.>.!.C.=.` r.+XN @XR.+.                  .XoX:X:X,X,X<X3X3X5X3X3X3X3X5X7X7X7X6X6X5X5X1X1X>X>X>XoXoXK           #.Y #._ =.T ] 0.0.Z.Z.0.=.).M D.(.(.r.",
"Z F.D.R.`.K.S.C.I.' #.C.Q.Y Q.$XC.: > 3 o           {.|..X.X:X<X<X<X<X3X3X3X3X3X4X7X7X7X7X7X2X1X2X2X>X>XXX|.{.J   + # # # ] W #.#.%.W +.J.C.K.F.Q.D.r.! D.E.T.+.",
"n ,.S.T.C.@XF. .+.C.R.!.OXb F.OXr.r.D.E.m       : :   q XXXXoX.XoX.X.X:X<X<X<X<X2X4X4X4X4X4X:X.XoXoX.XXXoXK   + # ) R m.' D.S =.0.+._ &.=.D.C.S. .Z.r.] E.D.r.&.",
"T *.T.T.u.F.J.#.] F.T.I.@XC ~ } &.D.>.| e       Q.!.  q ,X,X,X,X,XXX.X.X.X.X.X.X.X.X.X.X.X.X.X.X5X5X>X>X>X-.  > S =.] $.=.] X.=.#.r./ A.J.r.J.| *.+.` Z +.>.0.9.",
"Z >.=.D.C.%.Z D.).S.!.Q.D.C F.).(.#XK.$XOX#.U.C.U.Q.X...      -.,X,X,X2X3X3X3X3X4X7X7X7X7X7X4X5X>X>X      O n M T E Z W ' M A.J. .K. .W '  .$.,.C.D.(.C.!.).U.D.",
"M *.r.0.R =.X.E T T ! E &.b T.!.`.R.!.I.,.F.W.U.F.D.R &.*.E   + q  XXXXX:X:X:X:X:X:X:X:X:X:X:X:Xq q   # Y < #.A.$.A.$.$.C.Z Z.0.%.r.W *.T.A.Z.D.C.S.T.F.E.J.D.Q.",
"v =.] ) 0.R.( S.%.=.C.C.#Xb !.C.W.$XF.W.,.W.D.I.T.W.Z &.D...      J K K K K ;.:X:X,X{.K K K K K     v T >.< $.) =.] C.( ] ' (.C.%.Z.} A.Z.$.T.F.U.D.T.F.!.,.D.D.",
"9 ) ] C.T.D.U u._  .D.T.Y.B !.D.T.R.Q.I.} X.( %.#.+.z .._ v   O ; X         2 }.}.*XJ               R _ | < R Z R _ #.) _ ] ] A.r.*.} &.C.' C.`.J.Z.U.J.A.).U.+.",
"z *.%.T.D.F.U #.U.#.D.D.S.C F.!.T.J.D.u.e   ; = = = = ;       k b.f ; ; ; = = * ; = = ; = = * ;     = = t t t $   s Z C s } _ %.=.F.! T #.+.$.+.~ +.+.} R ' >._ ",
"b #.K.u.A.F.M *.D.C.S.&.U.S Z.D.K.D.T.T.9   i.l.l.l.l.i.      k b.b.b.b.b.n.z.b.j.n.v.b.v.n.j.b.    l.z.n.n.n.<.  Z D.Z.r.&.} ~ ! _ S ' J.T.D.} F.F.D.+X~ J.R.O.",
"M C.%.=.*.#.W =.A.Z.,.u.U.Z S.Z.u.!.R.U.4   i.l.l.l.l.l.l.i.  k b.b.b.b.b.n.z.b.j.n.v.b.v.n.j.b.    l.z.n.n.n.<.  R M.m.A.J.=.0.#.#.! #.(.A.J.| F.F.F.).| W.J.&.",
"9 ) Z M T R v Z R S ` m.*.7 &.#.) =.U # k i.g.l.l.l.l.l.l.i.  O ; a.b.b.b.n.x.b.j.n.v.b.v.n.g *     l.z.n.n.n.g.f.u # z A Z B ! b T x b ) ] _ b A ) ] +.s R Q n ",
"B ] ] ! R &.r.*.%.| ' #.y.b _ ! &.E 6   j l.l.l.j.j.j.j.j.d.k *   y k a.b.n.z.b.h.n.i.k j <.$   j j x.c.n.n.n.n.c.=   ' D.Q t.#.t.Z.N &.L.r.H.*.S.X.Q.T.F.W.U.+.",
"n %.#.=.! 0.=.C.u.=.C.C.T.b E.D.C.X.9   j l.l.l.b.b.d.d.d.d.b.l * * = l 3.p.i.3.3.p.g   O = = = l.l.n.n.n.n.n.n.n.=   | A.>.R.(.H.).T r.J.D.F.T.Y._ ).S.D.U.+XD.",
"S *.#.%.| | C.#.#.#.%.C.F.9 ,.J.F.+.M   j l.l.l.b.b.h l 2.3.b.b.b.j.v.g = = = = = = = = 2.x.z.z.x.l.p.f.n.n.n.n.n.t   Y Z.>.Z.L.J.E.N  .Z.F.F.W.,.,.F.Q.R.T.Y.*.",
"T Z.#.=.X.r.$.=.*.0.D.=.S.C =.,.A._ v   j l.l.l.b.b.  $ 2.3.b.b.b.b.b.v.l.l.l.l.l.l.l.l.z.n.n.n.n.n.  t n.n.n.n.n.t   _  .~ G.C.C.U.d S.U.F.J.S.Y ,. .+.+.| _ V ",
"S ) $.=.E _ @.Y Y +.>._ u.M | &.( ..6       i.l.l.l.  $ 2.3.b.b.b.b.b.v.l.l.l.l.l.n.n.n.n.n.n.n.n.n.  t n.n.n.<.      v ! T T _ ' | U C.R.D.T.I.O.+XI.Y.T.F.Q.r.",
"~ &._ { Y #.C.| ~ J.$.C.I.M R #.] E _ T d   p.c.l.l.  $ 2.3.b.b.b.b.b.v.l.l.l.l.z.n.n.n.n.n.n.n.n.n.  t n.n.n.<.  v } n +.=.Z.F.G.F.~ y.T.U.D.| +.r.+.t.y. .W ` ",
"Z M.{ %. .] %._ | %.Z.D.S.b Z S R Y R T 3   p.n.x.x.  X y g a.s.b.b.b.j.j.l.l.l.z.n.n.n.n.n.n.n.n.n.  t n.n.n.<.  +.D.n #.K.=.Z.(.U.+. .t.*.r.Y.U.~ I.r.I.I.Y.O.",
"n | Z T Y ) $.=.} ' #.#.I.z C.=.F.T.C.*.v   p.n.n.n.      $ 2.a.b.b.b.b.b.l.l.l.z.n.n.n.n.n.n.n.n.n.  t n.n.n.<.  _ ,.] S.F.H.Q.T.).+.=.D.,.!.y.+X/ S.U.P.R.Q.| ",
"T X.) | ! C %.] ~ z ~ R ] B 0.0.u.(.C.C.6   p.n.n.n.      $ 2.a.b.b.b.b.b.l.l.l.z.n.n.n.n.n.n.n.p.p.  t n.n.n.<.  ! +.` r.r.(.=.F.(.*.$.U.D.U.W.W._ P.S.D.Q.Q.>.",
"` %.R ] +.C Z.*.X._ =.#.C.b %.| @.Z.] C.e   p.n.n.n.      $ 2.a.b.b.b.b.b.l.l.l.z.n.n.n.n.n.n.n.      t n.n.n.<.  ' ! +.+.T &.W ..*.A U.$XT.Q.W.r.&.Y.Q.#XQ.T.D.",
"R #.m.] | %.*.0.#.=.#.=.S.7 =.,.R M.=.&.9   p.n.n.n.          y 2.d.b.b.b.b.h.l.l.l.x.n.n.n.n.n.      t n.n.c.<.  _ ' T.r.X.F.C.Y.E.T D.!.$XU.F.>.,.,.&X#XW.U.>.",
"B #.$.C.} ! A.#.] $.0.#.,.b #.{  .=.B : h p.z.n.n.n.  @ n n   X $ l 3.d.b.b.h.l.l.l.x.n.n.n.j t       t n.c.c.g.p.u o +.!.W D.D.Q.Q./ Y.F.!.$XF._ W.S.W.Y.$X#Xy.",
"Z ] S 0.S n 0.%.%.o.#.%.>.C R 0.#.%.6   j n.n.n.n.n.  # S n @ .   h 2.d.b.b.h.l.l.l.x.n.n.n.t   > n   = n.p.<.<.<.O   W =.C C.U.J.r.T Z.H.T.Q.R.N I.0.X.r.r.OXy.",
"n { _ _ ` ] } W ' R _ ~ ] z ] | } } :   j n.n.n.p.p.  # o.] &.8   h 2.s.b.b.h.l.l.l.c.n.n.n.t   ! T   * p.l < 5 d o   7 ! S a N B Q x b B z z S B S S S x n V n ",
"Z =.S.A.C.u.T.>.Z.+XT.(.+XC F.$XF.S.e   <.n.n.n.      # A.Z.A.9   h 2.s.b.b.h.l.l.l.x.n.n.n.t   %.0.& @   Q -X;X8Xw    .R.$X>.I.+XQ.E I.F.S.I.W.S.,.U.!.Y.Y.Y.W.",
"R C.F.C.,.#.D.,.r.F.u.U.!.Z J.U.T.W.v   <.n.n.n.      : J.Z.C.n   h 2.s.b.b.h.l.l.l.x.n.n.n.t   %.#.%.'   ^ =X=X=Xi   >.W.$X>.,.!.S./ +XT.F.!.U.>.,.I.!.T.S.C.,.",
"T :.C.C.F.r.*.>. .J.F.F.!.M D.F.F.!.9   j n.n.n.      1 ,.,.Q.m   h 2.s.b.b.j.l.l.l.x.n.n.n.=   Z.] m.n   e.9X9X9Xd   | ,.T.>.S.W.U.( T.Q.C.%XT.u.!.I.@X!.X.y.y.",
"z #._ ] ] #.+.T +.>.C.=.!.E C.u.T.#Xw   <.n.n.n.    T n _ F.Z.8   O $ ; ; ; ; = = = = t t t X   ] ] ) s   e.9X;X=X5   m ~ &.! &.T.T.} X.T.U.).Q.I.I.$X!.!.,.S.U.",
"b #.>.| Z.F.U.+.Z.} C.C.Y.Y X.&.+.>.#   <.c.n.n.    +.I.,.( Q.6       # 4   . 4 @   + 2 +       &.E &.n   ..;X~.^ H d / U.U.>. .T.%.~ _ C.F.I.T.@X%XU.F.Q.S.C.#.",
"Z ,.0.Z.C.C.C.,.C.C.S.J.OXM r.T.J.F.+   g f.k.n.    _ =.u.$.!.8       4 r + @ r 0 + 4 r 1       ] .._ T   ^ -XQ . >.t.H.H.Q.y.+.,.>.} y.>.>.W  .>.,.>.R } >.| ] ",
"Z F.{ A.u.E.F.>._ T.D.F.I.n y.,.U.u.:       1.p.    b D.T.D.J.9           r 4   + r 1           0.} R Z   ^ =X^   &.C.Z.T.Y.>.o.F.U.~ U.T.R.>.F.C.W.OXX.T.:.U.S.",
"M K.C.=.C.=.%.S.! | } &.| Y F.=.U.S.0               B D.R.G.T.b                                 { _ _ b   Q -XS    .F.S.J.E.&.r.Z.A.~ U.R.T.>.,.,.+XQ.R F.=.r.S.",
"Z J.C.%.&.=.>.D.#.(.,.#.U.R ,.T.#.F.4   c V._.[.    ~ 0.$XT.C.P   2 0 r H r r 0 w H H H L I +   C.0.  > V.-X9Xe.  v | T ! *.| _ } } s C.D.F.,.I.,.,.P.T A.o.>.| ",
"C A.C.r. .=._ D._ L.C.u.I.T &.+.} S.#   c V./.-X    S &.T.J.F.L   2 0 r H + o o . o 4 H L I +   %.J.  & V.'.-X~    .Z.I.T ).D.F.U.S.M F.,.&.&.F.C.I.S.E X.+.} ` ",
"B +.r.=.F.&.%.S.Z =.D.Z.W.E *.} &.@X@   > c q.~.    ~ Z.*.T.R.L   2 0 r H   o e #   1 H L I +   *.T.  > V./.-XZ   ' C.I.S S.U.J.D.F.U D.J.,.X.Z.r.r.y._ ,.T.U.D.",
"C %.%.#.m.+.H.*.R &.#.$.#Xb +.X.u.S.# : o   D 7.    A *.T.*.F.m   2 0 r H   & o.e   1 H L I +   #.r.: < [ V.[.A   o.=.I.R R.T.J.D.A.C r.J.,.,.T.,.D.Y._ C.S.r.*.",
"z ~ T R A Z ~ ! ! Q ! T Z p z n Z S B _ :       & 3 x B ! M B 6   2 0 r H   @ N 5   1 H L I +   N T C s   d q.a   s T W n N b b b ! c s b B ! T E R ` x S ! A Q ",
"b #.%.H.J.Z.r.&.A.E.H.H.F.C Z.Z.R.D.F.T.:       U.+XZ _ J.E.).Z   2 0 r H   > ,.8   1 H L I +   $.*.F.W           Y _ Z.*.W ,.r.Z.U.C U.=.r.r.J.F.*.F.C.Q.W.U.r.",
"n #. .=.r.J.J.C.0.$.C.J.T.T 0.r.J.D.F.!.X.).F.I.).!.V r.C.T.,.e   2 0 r H   : &.7   1 H L I +   C. .] *.A.T 0.0.%.H.r.D.G.~ 0.G.r.r.b =.A.D.E.T.F.J.$XJ.D.#XH.r.",
"Z %.#.%.J.0. ._ A.C.J.L.t.Y =.H.T.C.&.U.M T.A.K.Q.S.b +.F.J.!.v   2 0 r H   & +.9   1 H L I +   U.*.%.J._ ..C.H.C.0.%.0.T.} D.A.r.S.8 &.,.Z.U.Z.r.F.m.T.G.t.D.&.",
"_ $.K.%.] Z.o.R =.A.A.9.r.| C.E.S.C.C.+XZ } r.+._ ,.x #.T.C.T.M   2 0 r H   : *.>   2 H L I +   +.*.| r.O.x L.r.%.o.' ! ~ s ] { ! } 7 $.F.0.R.F.F.C.J.F.L.Y.G.&.",
"z o.] u.,.u.$. .Z.A.G.C.Y.b Z R ~ o._ *.Y ,.C.D.F.I.! r.S.S.I.M   2 0 r H   & o.E   # H L I +   | r.r.~ D.n ! ! ! *.Z +.r.*.+.*.+.C.W Z.%.,.C.] C.A.*.0.r.U.Z.+.",
"S o.@.#.$.+.#.T %.$.F.C.>.| 0.J.,.*.C.y.] F.U. .$.W.~ T +.*.+.d   2 0 r H   & P _   1 H L I +   m.E.J.| %.n $.m.K.y.b 0.F.$.A.%.] #.&.Z A.&._  .K.D.#.=.r.F.%.$.",
"v F.#.{ 0.*.H.#.#.#._ ) N ' C.r.Z.X.Z.I.' D.#.*.U.F.B +.).F.Q.m   2 0 r H   : } E   1 H L I +   =.J.C.C.>.d #.] #.F.n =.=.Z.0.+.` C.X.m S R M E R _ R } A ! | ~ ",
"6 ) S ) R ~ ! R ~ #.#.%.J.~ C.%.u.=.K.I. .,.C.C.D.Q.v >.!.T.Q.M             3 } }               ~ o.%.~ +.7 A.{ C.,.v *.$.H.o.0.$.$.S #.$.#.0.u.#.=.U.(.E.t.A...",
"b ] ) m.G.] &.0.0.%.] U.F.' Z.#.#.+.#._ _ ,.C.D.J.I.S >.$XT.F.e             # W ~               ).T %.C.Q.V L.0.#.J.8  .` ~ ! A _ ! n #.m.#.%.A.0.*.T.G.0.$.H.$.",
"Z #.{ %.L.] ] #.r.#.] A.S.s ! _ R ) =...X.| =.C.Y.U.> d Y M m :             @ W T               m 5 v M ,.v M.%.m.S.T #.m.m.#.~ =.#.Y ]  .] #.,.] &.0.,.#.%.0.O.",
"S ] G.E.*. .0.m.0.%.#.` J.b %.| C.C.A.>.) &.D.C.r.@X                        3 &.Z                     # Y.Y ] #.o.r.S o.m.%.r.T ] =.Z ) #.#.A.%.%.] A.L.) 0.r.*.",
"n %.#.] 0.o.m.%.G.t.0.0.,.M $.L.$.A.H.+._ #.$.=.J.U.                        3 &.M                     & S.C #.o.%.r.! %.9.0.D.R ] #.C S R #.A.#.#.#.=.A.] Z.%.r.",
"b C S S ) S ) { ] ! ! ! ` s Z W Z Z ! N N Z _ n R _                         o C >                     # ~ s Z B n B N S n B B p b z z z z z B n z v n b B Z V S "
};
