/* XPM */
static char *_68277981a264cce92488c23ac5fda5bB5Ytf7oP8McEfB1Y[] = {
/* columns rows colors chars-per-pixel */
"80 80 135 2 ",
"   c black",
".  c #010000",
"X  c #020000",
"o  c #030000",
"O  c #030101",
"+  c #040000",
"@  c #040101",
"#  c #070000",
"$  c #080000",
"%  c #090000",
"&  c #0B0202",
"*  c #0D0000",
"=  c #0E0000",
"-  c #0F0000",
";  c #0C0404",
":  c #0D0404",
">  c #100000",
",  c #110000",
"<  c #130000",
"1  c #140000",
"2  c #150000",
"3  c #150606",
"4  c #1A0000",
"5  c #1E0000",
"6  c #1F0000",
"7  c #180505",
"8  c #190606",
"9  c #180707",
"0  c #1B0808",
"q  c #200000",
"w  c #210000",
"e  c #220000",
"r  c #230000",
"t  c #210202",
"y  c #240000",
"u  c #250000",
"i  c #260000",
"p  c #2A0000",
"a  c #2B0000",
"s  c #2C0000",
"d  c #2D0000",
"f  c #2D0101",
"g  c #2E0000",
"h  c #2F0202",
"j  c #2B0C0C",
"k  c #2C0D0D",
"l  c #2D0D0D",
"z  c #300000",
"x  c #310000",
"c  c #320000",
"v  c #330000",
"b  c #340000",
"n  c #360000",
"m  c #370000",
"M  c #380000",
"N  c #390000",
"B  c #3A0000",
"V  c #3B0000",
"C  c #3F0000",
"Z  c #380C0C",
"A  c #3B0F0F",
"S  c #3D1111",
"D  c #3F1212",
"F  c #3F1313",
"G  c #400000",
"H  c #410000",
"J  c #420000",
"K  c #430000",
"L  c #440000",
"P  c #450000",
"I  c #460000",
"U  c #470000",
"Y  c #480000",
"T  c #490000",
"R  c #480101",
"E  c #490101",
"W  c #4A0000",
"Q  c #4B0000",
"!  c #4B0101",
"~  c #4A0202",
"^  c #4B0202",
"/  c #4B0303",
"(  c #4C0000",
")  c #4C0303",
"_  c #4B0404",
"`  c #4C0404",
"'  c #4D0404",
"]  c #4D0505",
"[  c #4E0606",
"{  c #4F0707",
"}  c #420A0A",
"|  c #4F0808",
" . c #4D0C0C",
".. c #500808",
"X. c #530C0C",
"o. c #540D0D",
"O. c #550D0D",
"+. c #560D0D",
"@. c #550E0E",
"#. c #560F0F",
"$. c #570F0F",
"%. c #401313",
"&. c #4E1717",
"*. c #501717",
"=. c #581111",
"-. c #591111",
";. c #591212",
":. c #5A1212",
">. c #5B1313",
",. c #5C1313",
"<. c #5C1414",
"1. c #5D1515",
"2. c #5E1717",
"3. c #501818",
"4. c #5B1A1A",
"5. c #5D1B1B",
"6. c #601717",
"7. c #601818",
"8. c #621818",
"9. c #641B1B",
"0. c #651B1B",
"q. c #661B1B",
"w. c #651C1C",
"e. c #651D1D",
"r. c #661C1C",
"t. c #661D1D",
"y. c #671D1D",
"u. c #661E1E",
"i. c #671E1E",
"p. c #681D1D",
"a. c #691D1D",
"s. c #681E1E",
"d. c #691E1E",
"f. c #6A1E1E",
"g. c #6B1E1E",
/* pixels */
"T T T T T T T T T T T T T T T T T T T T T T T T T T T T T T T T T T T T T T T T T T T T T T T T T T T T T T T T T T T T T T T T T T T T T T T T T T T T T T T T ",
"T T T T T T T T T T T T T T T T T T T T T T T T T T T T T T T T T T T T T T T T T T T T T T T T T T T T T T T T T T T T T T T T T T T T T T T T T T T T T T T T ",
"U T T U T U U T T U T U U T T U U T T T U T U T T U U T T U U T T U T U U T T U T U U T T U T U U T T U U T T T U T U T T U U T U T T U U T U T T U U T T U U T ",
"< < < < < < < < < < < < < < < < < < < < < < < < < < < < < < < < < < < < < < < < < < < < < < < < < < < < < < < 2 < < < < < < < < < < < 2 < < < < < < < < < < < < ",
"                                                                                                                                                                ",
"                                                                                                                                                                ",
"D D D D D D D D D D D D D D D D %.D %.%.%.%.0     < d d d d d v D D D D D D D D D D D D D D D D D D D D D %.0     2 d d d d d d d d d d d d Z %.D D D D D D D D ",
"d.d.d.d.d.d.d.d.d.d.d.d.d.d.d.d.d.d.d.d.d.g.k     q ( T ( ( T ] 9.d.d.d.d.d.d.d.d.d.d.d.d.d.d.d.d.d.d.d.d.d.k     6 ( ( T ( ( T ( T ( ( T T ,.d.d.d.d.d.d.d.d.d.",
"d.i.d.i.d.i.d.i.d.i.d.i.d.i.d.i.d.i.i.d.9.d.k     q ( T T T T ] 9.i.i.d.i.d.i.d.i.d.i.d.i.d.i.d.i.d.d.9.i.d.k     6 ( T T T T T T T T T T U :.i.d.i.d.i.d.i.d.i.",
":.:.:.:.:.:.:.>.:.:.:.:.:.:.:.<.q.9.9.d.d.d.k     q T T T T T T :.:.:.:.:.:.:.:.:.:.:.:.:.:.:.<.9.9.d.i.i.d.k     6 T T T T T T T T T T T T @.:.:.:.:.:.:.:.:.:.",
"U T U T U T T T T U T U U T T _ 9.i.9.i.i.d.k     6 T T T T T T T U U T U T T U T U U T U T T _ 9.d.9.d.i.d.k     6 T T T T T T T T T T T T T T U T U T U T U T ",
"T T T T T T T T T T T T T T T _ 9.d.i.i.9.d.k     6 T T T T T T T T T T T T T T T T T T T T T ] 8.d.d.d.9.d.k     6 T T T T T T T T T T T T T T T T T T T T T T ",
"T T T T T T T T T T T T T T T T <.8.5.i.i.d.k     6 T T T T T T T T T T T T T T T T T T T T T T <.8.8.i.i.d.k     6 T T T T T T T T T T T T T T T T T T T T T T ",
"T T T T T T T T T T T T T T T T T T T 8.i.d.k     6 T T T T T T T T T T T T T T T T T T T T T T T T T <.i.d.k     6 T T T T T T T T T T T T T T T T T T T T T T ",
"T T T T T T T T T T T T T T T T T T T 8.d.d.k     6 T T T T T T T T T T T T T T T T T T T T T T T T T 8.i.d.k     6 T T T T T T T T T T T T T T T T T T T T T T ",
"T T T T T T T T T T T T T T T T T T T <.9.9.k     6 U U U T T T T T T T T T T T T T T T T T T T T T _ <.8.i.k     6 U U U T T T T T T T T T T T T T T T T T T T ",
"T T T T T T T T T T T T T T T T T T T ( ] ] q     < y y d T T T T T T T T T T T T T T T T T T T T T T _ ] ] q     < p y d T T T T T T T T T T T T T T T T T T T ",
"T T T T T T T T T T T T T T T T T T T T T T q     - q q p T T T T T T T T T T T T T T T T T T T T T T T T T q     - q q d T T T T T T T T T T T T T T T T T T T ",
"T T T T T T T T T T T T T T T T T T T T T T 6     - y q p T T T T T T T T T T T T T T T T T T T T T T T T T 6     - q q p T T T T T T T T T T T T T T T T T T T ",
"T T T T T T T T T T T T T T T T T T T T T T 6     < q q q d p d U T T T T T T T T T T T T T T T T T T T T T 6     - q q q p p d U T T T T T T T T T T T T T T T ",
"T T T T T T T T T T T T T T T T T T T T T ( q     - q y q q q y U T T T T T T T T T T T T T T T T T T T T T 6     - y q q q q y K T T T T T T T T T T T T T T T ",
"T T T T T T T T T T T T T T T T T T T T T T 6     - q q q y q y U T T T T T T T T T T ( ( T T T T T T T T T 6     < q y q y q y U T T T T ( T T T T T T T T T T ",
"v v v v v v b v v B T T T T T T T T T T T T 6     - q y q y q y d v v v v v v v v v v v b T T T T T T T T T q     - q q y q y y v v v v v v b v v v v v b T T T ",
"q q q 6 6 q q q q v T T T T T T T T T T T T 6     < y q q q y q q q q 6 q 6 6 6 6 q 6 6 p T T T T T T T T T q     - y q q q q q q 6 6 q q q q q q q 6 6 d T T T ",
"q q y q q y q y q v T ( T ( ( T ( ( T ( T ( q     - q q q q y q q y q y q y q y q q y q d T T ( ( T ( ( T ( q     - q q y q y q q q y q y q y q q y q q p T ( T ",
"2 2 2 2 2 2 2 2 2 6 d d d d d d d d d d d d 2     % 2 2 2 2 2 2 2 2 2 2 2 2 2 2 2 2 2 2 4 d d d d d d d d d <     % 2 2 2 2 2 2 2 2 2 2 2 2 2 2 2 2 2 2 4 d d d ",
"                                                                                                                                                                ",
"                                                                                                                                                                ",
"0 0 8 0 0 0 8 0 0 0 8 8 0 0 8 8 @     < < < < < 2 2 < < < < < < < < 2 8 0 8 0 0 8 0 0 8 0 8 8 8 0 8 0 0 8 0 0 8 0 8 0 0 3       < < < < < < 8 8 0 8 0 0 8 0 0 8 ",
"i.i.i.i.i.i.i.i.i.i.i.i.i.i.i.5.;     B T U U T U T U T U T U T U T U 5.i.i.i.i.i.i.i.e.i.i.i.i.i.i.e.i.9.i.i.i.i.9.i.d.3.@   % K U U U U U :.i.i.i.i.i.9.i.i.i.",
"i.i.i.9.9.i.i.9.i.i.9.9.i.d.i.5.;     B T T T T T T T T T T T T T T T 8.i.i.i.i.i.i.i.i.i.i.i.i.i.i.i.i.d.d.9.d.i.i.i.q.*.@   % K T T T T U :.i.i.i.i.i.i.i.i.i.",
"9.9.9.9.9.9.9.9.8.i.i.i.i.9.q.5.;   @ B T T T T T T T T T T T T T T T <.8.i.8.8.8.i.8.8.i.8.9.9.9.8.e.8.9.9.9.d.9.i.d.d.*.@   % K T T T T T :.9.9.9.9.8.9.9.8.i.",
"T ] _ ] ] ] T ] T :.i.i.d.9.9.5.;     B T T T T T T T T T T T T T T T _ ] _ ] T _ _ ] _ ] _ ] _ ] _ ] T _ _ <.i.i.i.d.d.*.@   % K T T T T T ( ] _ ] _ ] _ ] T ] ",
"T T T T T T T T T ..i.i.d.d.d.5.;     B ( T T T T T T T T T T T T T T T T T T T T T T T T T T T T T T T T T :.d.i.i.q.d.*.@   % K T T T T T T T T T T T T T T T ",
"T T T T T T T T T @.d.i.9.d.d.5.>   @ B T T T T T T T T T T T T T T T T T T T T T T T T T T T T T T T T T U :.d.i.i.i.d.3.@   % K T T T T T T T T T T T T T T T ",
"T T T T T T T T T _ ..] o.i.i.5.;     B T T T T T T T T T T T T T T T T T T T T T T T T T T T T T T T T T T ] ..] :.i.q.*.    % K T T T T T T T T T T T T T T T ",
"T T T T T T T T T T U T | i.i.5.;   @ B T T T T T T T T T T T T T T T T T T T T T T T T T T T T T T T T T T T T T o.d.d.*.@   % K T T T T T T T T T T T T T T T ",
"T T T T T T T T T T T U ..i.d.5.;     B ( T T T T T T T T T T T T T T T T T T T T T T T T T T T T T T T T T T T U o.d.d.3.@   % K T T T T T T T T T T T T T T T ",
"T T T T T T T T T T T T _ o.@. .%   @ B T T T T T T T T T T T T T T T T T T T T T T T T T T T T T T T T T T T T T ] o.o.} @   % K T T T T T T T T T T T T T T T ",
"T T T T T T T T T T T T T U U K %     B T T T T T T T T T T T T T T T T T T T T T T T T T T T T T T T T T T T T T T T T B     % K T T T T T T T T T T T T T T T ",
"T T T T T T T T T T T T T T T K %     B ( T T T T T T T T T T T T T T T T T T T T T T T T T T T T T T T T T T T T T T T B     % U T T U T T T T T T T T T T T T ",
"T T T T T T T T T T T T T T T K %     d B B U T T T T T T T T T T T T T T T T T T T T T T T T T T T T T T T T T T T T ( B     % b B B U T T T T T T T T T T T T ",
"T T T T T T T T T T T T T T T K %     4 q q B T T T T T T T T T T T T T T T T T T T T T T T T T T T T T T T T T T T T T B @   @ 6 q q C T T T T T T T T T T T T ",
"T T T T T T T T T T T T T T T K %     6 q 6 B T T T T T T T T T T T T T T T T T T T T T T T T T T T T T T T T T T T T T B     @ 6 q q K T T T T T T T T T T T T ",
"T T T T T T T T T T T T T T T K %     4 y q b K C U U T T T T T T T T T T T T T T T T T T T T T T T T T T T T T T T T ( B     @ 6 q q B K K U T T T T T T T T T ",
"T T T T T T T T T T T T T T T K %     4 q q y q q v T T T T T T T T T T T T T T T T T T T T T T T T T T T T T T T T T T B     @ 6 q q y q q b T T T T T T T T T ",
"T T U T T T T T T T T T T T T U %     4 y q q q q v T T T T T T T T T T T T T T T U T T T T T T T T T T T T T T T T T T B @   @ 6 q q q q q B T T U T T U T T T ",
"K U U K U U T T T T T T T T T K %     6 q y q q q d U K U U U U U U U K U K U K U U T T T T T T T T T T T T T T T T T T B     @ q q y q q q v U U U K U U U U U ",
"y y y y y y C T T T T T T T T K %     4 q q q q y y y y y y y y y y y y y y y y y b T T T T T T T T T T T T T T T T T T B     @ 6 q q q y q y p y y y y y y y y ",
"q q q y q q B T T T T T T T T K %     6 y q q y q q q y y q y q y q y q y q y q q v T T T T T T T T T T T T T T T T T T B     @ 6 q q q q q q y q q q y y q y q ",
"q q q q q 6 B T T U T U T U T K %     6 q q q q q q q q q q q q q q q y q q q q q v T U T U T U T U T T U T T T U T U T B     @ 6 q q q y q q q q q q q q q q q ",
"% % % - % % - < < < < < < < < -       @ % % % % % % % - % % % % % % % % % % % % @ - < < < < < < < < < < < < < 2 < < < < < @     % % % % % % % % % % % - % % % % ",
"                                                                                                                                                                ",
"                                                                                                                                                                ",
"%.D D D D D D D D D D D D D D D D D D %.%.%.0     2 d d d d d v A %.%.%.D D D D D D %.D D D D D D D D D D %.0     2 d d d d d d d d p D D D D D %.D D D D D D D ",
"d.d.d.d.d.d.d.d.d.d.d.d.d.d.d.d.d.d.d.d.d.g.k     q T ( ( T T ] q.d.d.d.d.d.d.d.d.d.d.d.d.d.d.d.d.d.d.d.d.d.k     6 ( ( T ( ( T ( ( T 8.d.d.d.d.d.d.d.d.d.d.d.d.",
"i.d.i.d.i.d.i.d.d.i.d.i.d.i.d.i.d.i.9.9.d.d.k     6 T T T T T ] 9.d.d.i.d.i.d.i.d.i.d.i.d.i.d.i.i.d.d.9.i.d.k     6 ( T T T T T T T T 5.d.d.d.i.i.d.i.d.i.d.i.i.",
":.:.:.:.:.:.:.:.:.:.:.:.:.:.:.<.9.d.d.d.i.d.k     q ( T T T T T :.:.:.:.:.:.:.:.:.:.:.:.:.:.:.<.9.9.d.i.i.d.k     6 T T T T T T T T T =.:.:.:.:.:.:.:.:.:.:.:.>.",
"T U T U T U T U T U T U U T T _ 9.9.d.9.9.d.k     6 T T T T T T T U T U U T T U T U U U T U T _ 9.d.9.d.i.d.k     6 T T T T T T T T T T T U T U T U T U T U T T ",
"T T T T T T T T T T T T T T T _ 9.d.i.i.d.d.k     6 T T T T T T T T T T T T T T T T T T T T T _ 8.d.d.d.9.d.k     6 T T T T T T T T T T T T T T T T T T T T T T ",
"T T T T T T T T T T T T T T T _ <.8.8.i.i.d.k     6 T T T T T T T T T T T T T T T T T T T T T _ <.8.8.i.i.d.j     6 T T T T T T T T T T T T T T T T T T T T T T ",
"T T T T T T T T T T T T T T T T T T T 5.i.d.k     6 T T T T T T T T T T T T T T T T T T T T T T T T T <.i.d.k     6 T T T T T T T T T T T T T T T T T T T T T T ",
"T T T T T T T T T T T T T T T T T T T 6.d.d.k     6 T T T T T T T T T T T T T T T T T T T T T T T T T 8.d.d.k     6 T T T T T T T T T T T T T T T T T T T T T T ",
"T T T T T T T T T T T T T T T T T T T <.9.9.k     6 U U U T T T T T T T T T T T T T T T T T T T T T _ <.9.9.k     6 U U U T T T T T T T T T T T T T T T T T T T ",
"T T T T T T T T T T T T T T T T T T T ] ] ( t     < p y d T T T T T T T T T T T T T T T T T T T T T T _ _ ] q     < y y d T T T T T T T T T T T T T T T T T T T ",
"T T T T T T T T T T T T T T T T T T T T T T q     - q q d T T T T T T T T T T T T T T T T T T T T T T T T T q     - q q p T T T T T T T T T T T T T T T T T T T ",
"T T T T T T T T T T T T T T T T T T T T T T 6     - q q p T T T T T T T T T T T T T T T T T T T T T T T T T q     - y q p T T T T T T T T T T T T T T T T T T T ",
"T T T T T T T T T T T T T T T T T T T T T T 6     - q q q p p d U T T T T T T T T T T T T T T T T T T T T T 6     < q q q d p d U T T T T T T T T T T T T T T T ",
"T T T T T T T T T T T T T T T T T T T T T T 6     - y q q q q y K T T T T T T T T T T T T T T T T T T T T ( q     - q y q q q y U T T T T T T T T T T T T T T T ",
"T T T T T T ( T T T T T T T T T T T T T T T q     < q y q y q y U T T T T ( T T T T T T T T T T T T T T T T 6     - q q q y q y U T T T T T ( T T T T T T T T T ",
"v v v v v v v v v B T T T T T T T T T T T T q     - q q y q y y v v v v v v b v v v v v b T T T T T T T T T 6     - q y q y q y d v v v v v v v v v v v B T T T ",
"q q q 6 6 q q 6 q v T T T T T T T T T T T T q     - y q q q q q q 6 6 q q q q q q q 6 6 d T T T T T T T T T 6     < y q q q y q q q q 6 6 q q q 6 6 6 6 p T T T ",
"q q y q q q y q q v ( T T ( ( T ( T ( ( T ( q     - q q y q y q q q y q y q y q q y q q p T ( T ( ( T ( T ( q     - q q q q y q q q y q q q y q y q y q p T ( T ",
"2 2 2 2 2 2 2 2 2 q d d d d d d d d d d d d <     % 2 2 2 2 2 2 2 2 2 2 2 2 2 2 2 2 2 2 4 d d d d d d d d d 2     % 2 2 2 2 2 2 2 2 2 2 2 2 2 2 2 2 2 2 4 d d d ",
"                                                                                                                                                                ",
"                                                                                                                                                                ",
"2 2 < < < < < < 2 < < < < < < < 2 < < < < < < < < < < < 2 < < < < < < < < < < < 2 < < < < < < < 2 < < < < < < < 2 2 < < < < < < 2 2 < < < < < < 2 < < < < < < < ",
"U T U T U T U T U T U T U T U T U T T U U T T U U T U T T T U T U T T U U T U T T T U T T U U T T U T U T U T U U T U T U T U T U T U T U T U T U T U T U T U T ",
"T T T T T T T T T T T T T T T T T T T T T T T T T T T T T T T T T T T T T T T T T T T T T T T T T T T T T T T T T T T T T T T T T T T T T T T T T T T T T T T T ",
"T T T T T T T T T T T T T T T T T T T T T T T T T T T T T T T T T T T T T T T T T T T T T T T T T T T T T T T T T T T T T T T T T T T T T T T T T T T T T T T T "
};
