/* XPM */
static char *_d914f6f9b444d56cf96c2752ba6f624lMWFwcPZelzCD0tt[] = {
/* columns rows colors chars-per-pixel */
"80 80 172 2 ",
"   c #2D291B",
".  c #332D1C",
"X  c #33311D",
"o  c #39321E",
"O  c #353222",
"+  c #3B3525",
"@  c #3E3926",
"#  c #3B3628",
"$  c #3D3A2A",
"%  c #413723",
"&  c #423B26",
"*  c #483D27",
"=  c #433D2B",
"-  c #483F2B",
";  c #443E31",
":  c #45412D",
">  c #4A432D",
",  c #4F482F",
"<  c #51462E",
"1  c #53492D",
"2  c #464232",
"3  c #4B4532",
"4  c #4D4935",
"5  c #4B473B",
"6  c #4D4B3A",
"7  c #504734",
"8  c #524C35",
"9  c #594F35",
"0  c #534D3B",
"q  c #594F39",
"w  c #545137",
"e  c #595037",
"r  c #55523D",
"t  c #5A543D",
"y  c #57583E",
"u  c #5B583F",
"i  c #60563F",
"p  c #62583E",
"a  c #4D4B40",
"s  c #534E40",
"d  c #565342",
"f  c #5B5542",
"g  c #575B43",
"h  c #5D5A44",
"j  c #565448",
"k  c #5B5748",
"l  c #5E5B4A",
"z  c #615742",
"x  c #625C45",
"c  c #685F45",
"v  c #625D4A",
"b  c #695F49",
"n  c #625E50",
"m  c #685F52",
"M  c #5E614B",
"N  c #646146",
"B  c #696246",
"V  c #65624B",
"C  c #6A644C",
"Z  c #67684E",
"A  c #6C6A4D",
"S  c #71674D",
"D  c #716D4F",
"F  c #75714F",
"G  c #666352",
"H  c #6B6652",
"J  c #676954",
"K  c #6D6B53",
"L  c #6B6758",
"P  c #6E6B5A",
"I  c #706750",
"U  c #726D54",
"Y  c #796F54",
"T  c #736E5A",
"R  c #786F5A",
"E  c #6F7055",
"W  c #6F7159",
"Q  c #747255",
"!  c #7A7556",
"~  c #777857",
"^  c #7C7956",
"/  c #75735A",
"(  c #7A755B",
")  c #77785D",
"_  c #7D7A5C",
"`  c #767461",
"'  c #7B7561",
"]  c #767860",
"[  c #7D7B62",
"{  c #7E7B69",
"}  c #82775C",
"|  c #827C5D",
" . c #897E5E",
".. c #827D63",
"X. c #897E65",
"o. c #837E69",
"O. c #7F8062",
"+. c #84815E",
"@. c #8A835E",
"#. c #858264",
"$. c #8A8565",
"%. c #8D8966",
"&. c #85846A",
"*. c #8A856A",
"=. c #8D8A6C",
"-. c #908666",
";. c #918A66",
":. c #988D67",
">. c #91876C",
",. c #928C6D",
"<. c #988F6E",
"1. c #999166",
"2. c #95916D",
"3. c #9A926F",
"4. c #868571",
"5. c #8B8672",
"6. c #8E8B71",
"7. c #928E72",
"8. c #988F72",
"9. c #928E79",
"0. c #959274",
"q. c #999575",
"w. c #9A9474",
"e. c #989577",
"r. c #9C9675",
"t. c #9D9576",
"y. c #9D9975",
"u. c #929279",
"i. c #979279",
"p. c #979479",
"a. c #9A967A",
"s. c #99967C",
"d. c #9C967E",
"f. c #9B987B",
"g. c #9C9A78",
"h. c #9D997B",
"j. c #9D9A7D",
"k. c #9E9A7D",
"l. c #A19776",
"z. c #A29975",
"x. c #A49E77",
"c. c #A1977B",
"v. c #A39B7C",
"b. c #A0987F",
"n. c #A09C7E",
"m. c #A39D7E",
"M. c #A59E7F",
"N. c #A99F7F",
"B. c #A5A07E",
"V. c #AAA37F",
"C. c #9D9781",
"Z. c #9E9A82",
"A. c #A19E80",
"S. c #A39E81",
"D. c #A29E82",
"F. c #A49D82",
"G. c #A3A081",
"H. c #A5A080",
"J. c #A5A083",
"K. c #A6A183",
"L. c #A9A181",
"P. c #AAA484",
"I. c #ACA584",
"U. c #ABA887",
"Y. c #AFA986",
"T. c #ABA388",
"R. c #ABA689",
"E. c #B1A986",
"W. c #B1AB8A",
"Q. c #B3AC8C",
"!. c #B0AC90",
"~. c #B3AC90",
/* pixels */
"8 B t A Y V B } } B U U } t A U V D Q D ! f R U U Q 9 C _ X.,.&.( 0.s.z &.../ v t } ( K _ o.h ..( ( ( } ( & ..} ..Q [ ..e ( Q ..$.,.8 U B ( Q [ =.=.6.h [ ( } B ",
"@ $._ *.7./ X.w.3.=.0.2.k.= w.3.%.g.V.Z.c.G v.6.F.8.c [ H.F.a.7.[ u.G.G 6.6./ G J &.h.) $.i.7 O.#.K ..[ ,.. 5.F.w.a.u.C.G f.7.j.=.4.h Z.*.0.&.n.0.u.6.` 7.Z.n.>.",
"3 V #.| X.T ..3.f.,.$.w...f e.h.w.n.w.*.=.G E.Q.d.A.C T a.p.7.&.6.9.a.v w.[ &.L V 0.t.[ a.9.6 _ K _ %.&.' & _ Z.P.T.6.=.T s.f.0.4.O.l 6.6.&.#.F.9.*.{ L =.&.0.=.",
"@ ..#.3...T ~ #.,.t.[ _ >.t =...n.e.f.0.=.v =.~.F.A.v T ~.*.f.=.w.F.=.G 0.[ =.( N 2.) #.8.*.3 ..7...) v.5.o 6.*.%.F.4.=.` 6.[ j.5.5.5 [ =.=.6.=.5...j g j.s.6.X.",
": +.~ 2.$./ K K / h P V ' 0 %.*.6.0.f.B.w.v 0.e.T.F.V o.P.{ j.,.s.0.i.r #.=.*.[ M 2.#.) ) { h _ #.*._ #.[ > K K d U G / n W./ 0.#.0.0 K E J / n h K ( L &.F.9.*.",
"> $.#.| $.K *.$.X./ $.2.o.0 #.F.0.6.0.w.G.v k.0.L.5.b { *.o./ [ &.' Q r w./ #.[ 5 ..) _ h A 3 &.$.Q %.$.#.$ &.F.5.A &.6.o.9.#.l [ 6.v / ) P K / ) [ ) P l F.=.' ",
"> | | $.$.P 8.....v %.7.F.3 H A v t t C I h C T T v 7 F.Q.*.7.n.=.W.J.l #.=.h.( d V ..( } j.2 *._ _ =.,.[ @ =.k.s.H / #.o.#.j.) [ =.l *.#.[ ) L a.6.a.*.V 7.f...",
"$ #.$.,.X.K $...=.G } ,.9.3 ..7.=.7.C t.L.n.e.0.n.F.3 7.6.=.d.9.[ &.F.$ G &.U 2 f 6.N.F.,.0.5 _ I _ w._ H   0.=.Z./ ) #.{ ' =.i.i.) d &.e.=.&.L x.F.a.[ d &.0.Q ",
"= 6 4 t h w G C U 0 I v.a.$ #.0.r.,.v 0.7.P.f.F.k.F.B 6.&.t.0.7.f.&.Z.f ( 0.7.K K ..,.=.%.=.V G K / Q _ =.o ) <.s.G #.) 5.G *.,.=.e.0 7.$.7.] d V V 0 3 r h b x ",
"4 ( ~ | ( K _ %.a.m #.0.=.4 &.=.t.L.d &.0.y.V.L.5.&.B &.#.0.n.f.*.=.7.U ,.*.,.G Q ) ,.=.=.[ a O.H C Q $.) : ) =.=.K ] E j.L %.2.,.6.0 ` [ ,.) Q =.#.) / Q U n.( ",
"> _ _ Q _ ( ..#...H 6.( p.= =.e.,.x.P =.&.,.0.n.=.D.f ) w.=.v.v.f.6.6.U 7.~ 0.T N z.j...w.0.4 Z g._ g H 7.X ..&.T C *.) ] v =.=.w.Z.@ K *.0.) W X./ $.0.7.V _ / ",
": ^ Q | %._ *.<.=.0 *...a.> =.e.p.a.m =.w.0.,.&.s.s.7 [ =.f.B.x.t.*.o.x X.i.x.T ) #.=.7._ 4.: ) ~ Q | h a.+ _ X.' U t.{ K ` v ` v V @ V #.2.G E Q [ w.$.=.( _ R ",
"0 +.A $.$.~ $.0.*.4 Q ..X.2 _ ,.z.=.k #.n.*...0.%.*.4 9.c.L.t.B.h.#.9.Y $.0.,.U V $.Q V $.=.+ l Q _ ~ | ' + v T K 0 .._ 6 / l l B / $ z B K 6 N g C Q G U Y Q C ",
"3 t r d 0 r t = c r u B B 4 A U A V v f r e 0 8 h G e 7 g l r x v t V f 6 d x z 2 N f h d h V z x d t k b = B U ! A x 0 f U h U U ..* H C G _ ^ Z f C _ D D S z ",
"> Q Z ( U @.7.l X.( $.~ F.t %./ =.1.w.2.L 0.w.w.a.5.V ..#.) #.&.9.G #.K K _ *.P h $.U X.T ,.,._ | -.} } l.= =.@.7.,.#.P _ %.N =.} =.: _ Q J ) %.K d $.,.<.0.,.Y ",
"4 } ! ! $.} $.v %._ E 3.9.u 0.0.,.) ) v.` P.n.w.a.&.v [ =.=.#.%.7.V &.#.[ / 0.K g t.#._ { l.#.X.^ A _ 0.=.@ =._ l...#.j Q =._ 2._ &.f &.Q Q =.+...j #.$.( *.8.Q ",
"& _ Q %.%.| #.v X.#.Q %.7.7 _ Q y...#.$.v &.=.$.7.7.f ' .._ h.2.#.G ~ $.#.=.Q f w #.%.X.T %.Q Q ( +.;.| T = } #.U | ..h ( #.| | *.%.0 _ _ #.#.2.X.a Q =.x.( %.C ",
"@ ^ A F ^ A t.j _ *.t.$.,.4 h v ( _ V C 3 _ %.a.L.0.e Z K l #.C G r V M V F l h x | #.=.G v z 0 p 3 x v ' 4 _ _ _ $.*.v T _ $...t.} l A _ K ^ $.=.r | +.,.%.} Y ",
"> x Q A %.:.$.V V B C U I 3 } _ K ] ~ #.l O.) / 0.7.h ' [ _ ] U 7.a.6.#.H / ..u.l _ Q ~ T -.( #.Q T ;.;.' 0 B B r B V 3 X.*.^ [ $.$.f ~ Q G z.} 6.2 | V @.8.} _ ",
"3 @.| | #.$.$.G | ^ ;.2.w.5 A [ J Z V ,.j l r l #.*.0 ) B.=.K J ,.) 3.#.G $.e.6.$ A V B : } $.K | K } :.,.t A $.[ ..( l =._ A ^ D ..0 Q #.U <.,.7.f +.K | <.w.Y ",
": D  .| ! } ;.v ~ | U =.w.f Q ) K $.Q 0.J ) =.' H f @ T / =./ l w.=.7.~ P [ K 5.0 _ / [ ~ K Q C z g ^ ;.| h Q ~ U Q <.V Q %.A Q #.3.= K +.Q ^ | ( h C _ } %.#.C ",
": B @. .| | } P A | $.Z t.8 %.U N ~ v C h y.=.k.0.X.V Y ( _ ~ g / %.$._ l 3.( { d ) ,.$.~ _ Q ,.#.V _ ^ T f ~ x ~ ~ X.P C N h A B G + H Q ! } | P x ^ Q Q @.} ( ",
"@ Q 1.:.@.Q +.l | @.^ U =.= V P } #.Q P f w.=.%.7.,.I v ,.#.H 6 5 Z Z l 0 U *.*.h #.| ~ / ^ K ^ T C @.( T 4 U %.D | #.f Q _ B | X.t.> C Q F | ;.f f ~ ^ } } +.D ",
"4 | A D Z +.Q T } _ %.X.&.$ Q Q 0...E l h ] #.%.=.*.U Z ) #.#.U K N %.K G ..| ..8 | %.K Q ^ Q | v A ;.} *.O Z _ $.Q _ h D $.K F $._ = A ! | +._ v [ A #.Q | Q I ",
"$ @.U ! _ Q } t.I X.%.;.i.= V / ,...+.d Q #.#.#.=.w.P _ #./ &.Z [ #._ K J ;.,.X.6 +.X.%.+.} Z D h V :.@.*.$ N } Q ;.( V _ D ^ N F >.0 I Q A } U = ^ ^ } D ;.U U ",
"w D %.S -.@.@.:.0 Q ! %.<.. V Q | A / j H $.#.~ #.=.G Q _ _ / Z ) ,.( ( G Q %.T f [ ~ A u Q C ( V N +.| *.@ F ^ D @.T + | #.U A U ^ 4 t B _ I _ + Q %.#.! ( Y b ",
"@ > & > > : : 7 > + & < t + & + : 6 8 3 3 3 & = & > < @ > : 7 : 8 4 , 3 : 7 c 7 = 4 > 0 $ : 3 u > > 3 9 f + = = 7 3 e = t w 4 @ = z 7 O @ 7 > u + 3 t 3 - * q 9 ",
"V c.$.=.7.,.$.p.,.( B t ( f *.a.v.7.a.n.n.' _ =.=.c.K G 5.0.w.{ _ #.] w.d.c.c.U z w.w.5.t | $.w.&.V ( ,...* g A c U $.Q _ H } ( S ..e / ( | =.#.#.=.*.z *...8._ ",
"d 0._ *.t.y.] j.#._ B X.F.0 F.a.7.I.j.n.n.o.f.7.w.n.R _ *.T j.{ [ 6.w.0.=.c.w.H b n.=.#.` _ w.v.&.x &...9.+ ~ M N A +.^ ( Q g U Z ( f C #._ $.$...[ v.0 ,.n.c.X.",
"d =.=.w.n.,.&.#.7.V Q #.i.d a.U.V.=.0.d.i.&.v.P.e.w.' / a.' 0.` ) 4.%.a.6.a.w.V r w.0.( G / F.#.7.0 [ / ..= C A N ~ A V V A l Q ~ _ k Y =.+.w.=.a.*...f $.a.0.U ",
"4 [ *.0.#.H.=.K U #.w.w.C.4 =.Z.....=.t.o.G j.0.Z.e.H k ....[ { U &...6.[ Y U z h n.v.=.G z.e.~ p.4 K #.w.& A +.N F x +.C *.g ( } U v ~ _ *.#.&.U #...C t.*...! ",
"d ) 2.0.#.=.,.Y K =.0.7.G.0 v G / #.' H ' H a.4.f.j./ U P P / #...' z L V &.U ' H ..*.n.T _ w.) [ N J A v.= N M y _ Z ! _ A K _ Q ..G %.,.X.,.K ( T B r U [ ..( ",
"8 [ _ =.#.^ r =.c.&.c.h.*.0 %.v.v.P.3.P.F.U 6.O.7.f.U 6.=.=.e.6.a.5.L [ J h.=.&.h &.Z =.....2./ J H ) C #.7 4 5 h h 0 z G 0 %.,.A <.Z f C H ( { #.%.n.#.j.n.7.*.",
"6 ( #._ h } L l g f z d ( 4 0.h.B.e.k.6.{ =.p.u.=.&.l [ p.j.$.=.j.C.N =.=...w.C.B 7.$.=.*.2 7 z V r | ( ~ + U %.( %.~ ~ $.r %.} _ #.v ( w.=.$.&.#.#.0.=.t.,.*.j.",
"2 _ A V | w.G #.( _ &.#.L.2 h.*.e.P.*.a.o.9.=.7.0.p.0 ( %.4.0.B.a.C.Z ..u.=.,.!.3 / $.0.T A 9.#.~ D _ *.] . ! B ( A ..v A V y.#.^ $.L $.$./ 2.%.3.&.7.,.a.[ *.=.",
"$ N C ..0.*.a [ Z K %.0.9.8 h.*.2.f.a.,.P =...H.p.0.h =.#._ e.6...{ g 0.0.[ =.( 0 V h h V V %.*...| ~ #.=.& N A ^ I ~ N G A A -...( G / +.A $.B.=.X.7.0.$.F.7.T ",
": / | 2.&.=.0 E 6.Q &.=.*.0 =.a.w.6.=.[ h w v ,.P P e 2 v Z T f r h 0 V v f v f t a.[ / 6.7 =./ #.$.#.~ T > t K f t r 0 = H V ^ ^ =.v t / U / U V P T G h v ( B ",
"2 / 3.O.%.%.0 _ %.#.$.) 5.f #.=.=.$.0.p.V ..F.n.=.=.U r e.$.o.0 / #.*.w.#.,.K L 6 =.*.*.[ h =.U | Q #.Z &.O U _ ( Q *.#.../ V v x V t Z ,.0.$.G =.=.$.P.c 7.w.T ",
"6 O._ _ ) / l ) %.#.O._ 7.8 #.$.#.f.r.0.( =.k.e.h.../ V *.) p.v M ) h.0.=.%.K K u #.=.,.i.w $.Q Q ) Q Q [ # C Q U _ +.$.%.,._ _ I Q z Q a.%.,.L =.,.$.n.G i.,.( ",
"@ N r 6 r N 3 r x f N X.) $ ) Q N _ K g H V _ D [ T V 2 h r x 6 V G f w 4 c 3 7 = x 4 x h O h t t 4 u w c X 7 t r t u 8 e t 7 B 4 f < 4 N A v 3 t N G / ; h i 7 ",
"w A A x p Q ..( _ P c T #.3 V B / h U ..[ ( U l _ *.B f U T _ &.[ o.L U ' _ } b _ #.=._ _ [ ( ..K v Y Q ( > A ( ( } ! X.X.v  .Y $.$.0 R 8.} ,.) &.T w.0.=.i.7.R ",
"7 ~ Q _ v | _ $.| _ ..$.i.2 w.=.#.P _ =.$.6.=.0.E.v.U q #.P %.2.%.,.G U =.=...v Z #.$.#.| ~ _ ( P A #...| @ _ +.| <.,.;.-.( <.A.,.v.r ..<.%.=.3.u.V k.&.=.7.N.X.",
"r ( Q ! G U &.Q Q ~ _ #.=.$ [ =.,.T *._ [ [ =.=.a.#.( t &.) / W W %.( X.2.+./ v Z %.,.Q %._ =.#.t Q ~ | *.- $.X.%.<.,.P $.' #.w.,.t.7 P &.=.=.e.[ ..*.a.0.0.9.( ",
"h #.Q | J ..~ / / _ $.| &.7 _ [ %.v #...#.#.~ w...o.C r w...Q / =./ { K _ Z ( H G | ( | 0.#._ [ 4 A | ( *.= ..| +.#.$...P x >.$.*.7.= #.7.,.7.&.d _ K T T K V t ",
"t V ( ( h x / d d T [ v o.8 Z ) M P U ( P b ( / V K c 6 l G d 5 N P h r ~ / K T C =.%._ ~ +.Q ) c ( Q @.>.8 } 3.$.=.T N x t f V b L 0 &.w.*.0.6.U F.6.i.i.=.s...",
"x / N Q j Q +.K l ;.( +.6.6 g Q A j / _ 0.G | =./ #.( h #.7.( #.6.%.6.d #.#.( Z ( / #.K Z F H Y 8 ,.H Z #.+ h C C C / 7 K ..$.=.,.=.v ..0.7.*.S U ..R X...K z B ",
"r @.D ^ H D _ V L } $.*.*.2 6 d x d l d Z 2 ( =._ #.) r ) y.' =.~ &.) k ~ %.0.K t f h t h l h u B %.Q | ..> U $...=.*.5 Q 3._ $.t.0.T C X.( ..9.6.v 5...6.5.7.Y ",
"3 K w f t x ~ _ G C Q Q 6.: #._ =.<.../ *.f ~ #.e.*.L r A 3./ ) U =.K K *.| #.l Q ,.-.( Q K C Z C | Q ^ K + #.$.,.$.) A $.=.=.h.w.F.T _ *.[ j.o.F.G o.7.5.0.d.H ",
"h K l K v 0 ~ A v = b f A 7 | ^ O.B.#.#.Q h $.) w.#.U U K ) K [ W #.( l #._ / v A 2.^ %.| | ,.P u C N h c o *.+.~ X.K C ..X.c.) =.x.( ( 6.*.0.a.i.G *.&.*.s.s...",
"B _ g A U r %.( T V _ ( #.4 _ Q Q @.A #.P P +.~ y.+.T T e.A / 2 3 d 8 # B C B f t | $.E -.} 3.L u | Q ;.} % ( 7.Q +.v T U k / v L ( t ,.T.0.p.i.[ / 9.p.P.f.0.*.",
"z Q +.A G ~ ~ | Q _ Q ^ &.$ ^ [ f %._ ( K M H K _ 2.H l V.#.P [ E / ( #.| Y ..C h ^ Z A ;.w.X...4 V A @.*.  Z #.K _ G w.[ T =.#.9.l.h *.v.P.7.=.' [ &.Y.L.a.7.} ",
"w U ~ $.G c %.Q C ~ | U [ 3 K Q K ( +.#.K / $.[ ) _ Q t A #.P _ ( 6.%.Z M / _ ( 0 +.Q K C | z._ u | _  .0.+ Z $./ &.8 *.h.l $.&.w.v.v 9.=.f.Y.=.G w.&.u.9.T.P.o.",
"w D p ^ h 3 | ! _ U U ~ ( 7 l | Q ( F | G 0 ~ K Q Q H = t g 8 f B x V z w t N Y = r h h r f F x f %.Q @.,.. 4 _ ,...6 _ [ 8 ..7.,...f X.=.w.f.0.0 =.} K &...h...",
"4 U V B A H G l C z B B A = C P G G r / U / u h c Q e w I D U I z C A p z B S f 8 D D S c C w C z f p h C , q t > 1 , 3 x p * 0 8 c < = 4 > = t e r e u = 7 9 < ",
"0 _ &.#.#...w.' *.F.0.v.G.6 *.I.=.&.&.6.i.0.6.f...6.b v %.#.=.| =.[ ( v _ Q $.} w ;.} #.Y %.I X.^ ^ } } ,.; w.7.s.G 7.7.i.T.T 9.F.i.h 9.7.&.6.i.#.{ u.f.i.0.9.9.",
"h #.=.#._ E &.{ ..=.[ 0.f.r 7.0.0.u.{ [ 7.T.6.] Z.[ C K ,.%.$.z.[ %.o.v | =.=...8 3.@.} K ~ ( Q ^ ! ^ ,...= L.i.7.' e.f.p.W.` _ d.&.n F.7.*.f.0.] [ =.j.0.&.&.{ ",
"f [ #.#.=...( ( K ,.%.5.j.0 *.=.=.f.v l K T U T $.P 3 / ] ..t.*._ #.$.G #.Q #.U 2 _ %.%.~ } V U $.A +.U ,.3 6.T.a.T 7.#.[ u.` &.p.6.v 0.f.&.Y.0.&.f.6.H.a.K o.o.",
"2 U V B A ) U d K _ O._ f.g &.[ e.P.T u.` &.=.6.7.K.( v C =.$.T _ _ ( T -.,.U _ u K ;.$.Q _ d D B A N r Q : / =._ 0 v h N / h / e.7.G K 7.0.B.f.=.6.T.f.h.{ &.7.",
"2 U _ P #.,.<.T *.G O.$.9.r T T W ] 0 &.4.O.0.e.[ &.T =.] V i./ N &.Q G _ $./ G u #.Q #.,.' t U / l / V ..0 T ( ( ..( ( 7.8.' P w.) k G #.=.=.e.K.W.0.%.f.&.&.! ",
"w ....$.#...#.{ $.#.&.6.d.6 ..0.,.5.2 &./ #.P.f.&.#.V _ #./ n.' d #._ L T ,./ T A ^ A E +.=.0 ;.A P V ^ ..h ..7.*.a.*.*.,.a...U [ _ G ..` ' l H / { ' l J / G Z ",
"0 %.K =.#.3.7.' V 3.*.=.7.5 #.[ 7.O.6 =.&.#.F.w.s.5.3 *.0.%.,.&.U =.*.{ } _ *.T ( ..A | $.0.0 -.} J h K ( b ..=.,.w.#.$.0.0.` U <.7.v 9.7.0.' *.#.i.Z.P 7.` 0.*.",
"6 w.$._ #._ ~ o.z P V / L t =.) 0.&.] L G T v ' / o.3 *.0.,.0.} h I D V 6 / $.h A 2.K #.%.v.0 Z D B V C ] f ..#.K p.=...,.i./ ..#.#.v 7.a.7.' { [ D.i.x *.[ O.&.",
"r ,.$._ / _ ) *.Q x.[ / 6.h [ w.W *.L ..e.F.H =.7.a.C } P.0.$.{ _ =._ #.=.P ..G x :.+.| U T l ( #.~ V Q ) ; h l l V L h c ( H V G G & $.*.%...6.[ ] 4.f ,.U ) I ",
"8 #.#.} K ) V *.b w...#.6.f / W G #.h &.] 6.j $.=.9.0 ) 0.2.*.j ..#.$./ / Q O.H r O.=.@.T ..B _ ~ 3.#.A O.4 U =.#.$.%.6.d v.*.>.7.&.6 =.#./ ) =.#.7.&.l L U H b ",
"8 / | _ %./ _ o.w [ *.#.s.h ] Z ) T.l Z./ K / 6.p.6.v *.) 0.e.l / =.y.#.K [ ..T z _ #.$.| =.U / ~ ,.$.l _ $ #...Q ,.$.6.t &.7.,.*.=.s %.6.[ P $...#.o.Z ) 7.7.*.",
"6 _ _ Q +.U ,._ h / Q Q P.3 T K _ &.r =.K P K ) $.&.r } 0.( =.G H #.$.w./ ) _ U v t.#._ #.[ v #.Q | ^ } G 2 $.$.} ,.( 6.h w.7.,.*.$.6 X.,.[ { 0.{ &.6.Z #.*..._ ",
": v f z r r B c c z c f e & > 4 0 t 8 V 4 B 8 7 4 V > 8 B 8 7 0 6 K v r 0 t u 8 = t 4 7 r r 4 d 8 f 8 t 3 & t r r t h h 4 8 4 4 3 z 7 : 3 4 i h z h C - t z t z ",
"3 / ) ;.,.$.[ T -.0.,.%.5.0 *.#.w.=.=.9.v #.[ 7.6.n.t B ,.w.L.7.$.e.9.A h.t.3.[ f &.%.*.V [ K #._ ( =._ ..d _ Q [ K v $.( l [ ..X.7.0 :._ [ X.,.=./ =.#.a.t.7.o.",
"4 Q K _ #.,.,.#.+.~ | 2.0.r ..X.,.*.=.j.K F.=.6.n.k.e ..#.0.O.#.#.#.o.| =.#.a.( t #.=.%.=.W [ %.$.H C ~ ..d [ _ ~ ,.X.%.,.l } ,._ &.3 _ %.%.j.w.=.2.E.,.%.I.>...",
"r _ Q ~ <._ P V $.#.<.w.X.j _ ,.0.#./ 6.6 7.%.2.a.#.3 U 5.,.j.&./ &.J *.0.#.=.T h $.#._ 0.P E *.7.~ _ 7.N K $.,.#. .~ } 0.G %.>...&.+ T [ #.w.#.[ =.+.0.*.o.=.( ",
"N _ 3._ A #.U l _ %.;.( ..S #.w.&.#.$.F.d Z [ T B [ > ( 7.[ 0.0.p.[ G *.+.....} + h x N h v l N U ( P } U 3 ,.X.( Q B V V = A A x G @ ( =.| 3.=.=.$.=.%.3.3.=.Q ",
": A H | O.| ~ A $.%.;.$.9.2 w f v U b / j ....*.=.6.z ..&.&.7.y.3.%.h =.E w.o.K [ [ *.$.h.3 *.) K ....N *.7 x z h ' w U } ( Y ( U #.h $._ [ [ A O.$.[ #.} 3.*.K ",
"u D Q F ( D T g ~ ~ %.X...H } <.[ ( X.o.A =.0.H ( 0.B k T ' / o.Q [ [ Q K / ..0 [ 2.0.#.u.0 Q K #.e.,.K ' 4 ( @.2.X.3 | %.( %.( K ~ Q r %.~ V K 2.%.Q _ ..%.} ( ",
"2 =.Q F #.( ,.Q Q Q B N 8 V #...$.P %.6.C &.Q ) 6.=.7 T j.=.a.w.e.e.=.a.k.s.,.G O.) $.) 5.6 [ K _ 3...#.] 2 U A Q =.6 ~ ( $.| Q V #.U 5 r l 6 j B l z G f z H c ",
"O N g N u B x h c Q Q } 7.v #._ _ _ 0.6.K ..#.$.*.s.2 ' j.0.i.=.0.=.4.6.#.6.F.G &.e.K e.O.2 ` K V C _ z U + %.F +.{ 2 ) ( ,.U _ ~ ~ d Q Q Q +.| ~ ) 7.l.w.X.$.C ",
"4 V N } ,.K / } _ _ A ,.=.V %.Q Q Q U B V ) O.*.,.6.t ' U.0.=.=.&.&.=.Y.w.#.=.h ..O.O.E u.g [ %.F.t _ #.w.9 3.} U =.$ K B N x r V x 4 U +.Q _ ,._ ( w.-.@.~ >.( ",
"r Q F ~ 3.A A Q ..Q A %.%.; z N h x _ P U K _ #.9.7.7 ..K.i.6.0.*.) =.a.L.7.[ l Q / ) g &.v / *.5.j #.#.) 3 @._ +.$.f ! | +./ b } U j A K A Q ~ A ) _ ..Q _ } Q ",
"t A %.z._ S _ @.| _ Q B ,.2 _ K #.&.%.' N U *.&.| F.> ..*.f.f.&.4.) 0.7.2.i.0./ / E Z ) *.P s.K *.J &._ 0.t A K U ..u U +.} ..f D ~ 0 V Q Q %.^ ^ H %.3.N } ..} ",
"6 ^ Q A | Q +.^ %.X.( | [ 4 ( 8._ %.=.T N / ( _ ,.7.* &.0.0.6.I.&.A.4.=.&.7.=./ J O.H =.7./ 7.M ] f [ Q [ s Q F ^ #.N Q | | $.f A F 6 y y Q %.Q Q U _ %.A $._ | ",
"> 8 w u x t N A C B x x A + w x 0 0 z 0 4 t V 4 z V - f P v V M r Z h N h h 7 4 $ w 6 r u 6 w 2 z $ 8 l V = 0 e 7 7 7 u 4 w 9 @ 4 > : = > > 8 4 > 2 4 4 7 w e t "
};
